<svg xmlns="http://www.w3.org/2000/svg" xmlns:xlink="http://www.w3.org/1999/xlink" width="929.423" height="929.368" enable-background="new 0 0 1920 1080" viewBox="499.824 75.316 929.423 929.368"><path fill="#ffbd48" d="M1387,540.02c0,226.62-178.5,411.58-402.61,421.94c-6.58,0.32-13.2,0.48-19.86,0.48     c-66.9,0-130.14-15.55-186.35-43.26c-11.28-5.54-22.29-11.56-32.97-18.1c-53.43-32.49-99.12-76.55-133.48-128.66     c-6.54-9.93-12.68-20.09-18.38-30.58c-5.98-10.96-11.48-22.21-16.47-33.69c-22.41-51.51-34.81-108.37-34.81-168.13     c0-59.76,12.4-116.62,34.81-168.13c9.21-21.25,20.13-41.62,32.61-60.88c10.29-15.95,21.65-31.14,33.93-45.49     c0.04-0.08,0.12-0.16,0.16-0.2c77.47-90.43,192.53-147.76,320.95-147.76c128.38,0,243.37,57.25,320.79,147.6     c0.12,0.12,0.24,0.24,0.32,0.36c11.96,13.95,23.04,28.75,33.09,44.22c0.08,0.12,0.16,0.24,0.24,0.36     C1362,376.23,1387,455.22,1387,540.02z"/><defs><path id="a" d="M1387,540.02c0,226.62-178.5,411.58-402.61,421.94c-6.58,0.32-13.2,0.48-19.86,0.48        c-66.9,0-130.14-15.55-186.35-43.26c-11.28-5.54-22.29-11.56-32.97-18.1c-53.43-32.49-99.12-76.55-133.48-128.66        c-6.54-9.93-12.68-20.09-18.38-30.58c-5.98-10.96-11.48-22.21-16.47-33.69c-22.41-51.51-34.81-108.37-34.81-168.13        c0-59.76,12.4-116.62,34.81-168.13c9.21-21.25,20.13-41.62,32.61-60.88c10.29-15.95,21.65-31.14,33.93-45.49        c0.04-0.08,0.12-0.16,0.16-0.2c77.47-90.43,192.53-147.76,320.95-147.76c128.38,0,243.37,57.25,320.79,147.6        c0.12,0.12,0.24,0.24,0.32,0.36c11.96,13.95,23.04,28.75,33.09,44.22c0.08,0.12,0.16,0.24,0.24,0.36        C1362,376.23,1387,455.22,1387,540.02z"/></defs><clipPath id="b"><use overflow="visible" xlink:href="#a"/></clipPath><g clip-path="url(#b)"><path fill="#ffefe8" d="M1318.74,309.73V760.7c0,6.46-5.26,11.72-11.76,11.72H983.6c-6.5,0-11.76-5.26-11.76-11.72V265.52         h313.82C1297.61,279.47,1308.7,294.26,1318.74,309.73z"/><polygon fill="#4e86ea" points="1318.98 310.85 972.07 310.85 972.07 265.16 1320 265.52"/><path fill="#ffd5c6" d="M1231.79,289.26c0,5.2-4.21,9.41-9.41,9.41c-5.2,0-9.41-4.21-9.41-9.41c0-5.2,4.21-9.41,9.41-9.41          C1227.58,279.85,1231.79,284.07,1231.79,289.26z"/><path fill="#ff8bad" d="M1261.37,289.26c0,5.2-4.21,9.41-9.41,9.41s-9.41-4.21-9.41-9.41c0-5.2,4.21-9.41,9.41-9.41          S1261.37,284.07,1261.37,289.26z"/><path fill="#ffd364" d="M1290.96,289.26c0,5.2-4.21,9.41-9.41,9.41c-5.2,0-9.41-4.21-9.41-9.41c0-5.2,4.21-9.41,9.41-9.41          C1286.74,279.85,1290.96,284.07,1290.96,289.26z"/><g><path fill="#9764fd" d="M1185.6,468.58l-6.49,7.41c-4.82-4.26-10.98-6.16-16.85-6.85c-3.47-0.43-6.85-0.43-9.8-0.23           c-5.05,0.3-9.41,1.21-13.08,2.65c-3.31,1.31-6.06,3.05-8.19,5.24l-7.05-6.88c3.93-4,9.05-6.92,15.24-8.75           c3.77-1.08,7.93-1.8,12.45-2.07c3.15-0.2,6.69-0.23,10.42,0.16C1170.1,460.03,1178.68,462.48,1185.6,468.58z"/><path d="M1139.39,461.17v10.39c-3.31,1.31-6.06,3.05-8.19,5.24l-7.05-6.88C1128.08,465.93,1133.19,463.01,1139.39,461.17z"/><path d="M1185.6,468.58l-6.49,7.41c-4.82-4.26-10.98-6.16-16.85-6.85v-9.87C1170.1,460.03,1178.68,462.48,1185.6,468.58z"/><path fill="#4e86ea" d="M1134.93,479.66c0,33.96-27.53,61.49-61.52,61.49c-6.03,0-11.86-0.89-17.37-2.49         c-16.55-4.85-30.19-16.49-37.72-31.69c-4.1-8.23-6.39-17.5-6.39-27.3c0-31.27,23.27-57.06,53.42-60.96         c2.65-0.39,5.34-0.56,8.06-0.56c11.7,0,22.68,3.28,31.99,8.98C1123.13,437.9,1134.93,457.4,1134.93,479.66z"/><path fill="#4e86ea" d="M1292.81,479.66c0,33.96-27.53,61.49-61.52,61.49c-1.67,0-3.34-0.07-5.01-0.23         c-17.11-1.34-32.25-9.73-42.54-22.29c-8.72-10.59-13.93-24.19-13.93-38.97c0-33.99,27.53-61.52,61.49-61.52         c1.87,0,3.7,0.1,5.51,0.26c14.09,1.21,26.81,7.21,36.51,16.39C1285.3,445.97,1292.81,461.93,1292.81,479.66z"/><path fill="#9764fd" d="M1022.51,480.07h-17.85c-4.14,0-7.53-3.39-7.53-7.53l0,0c0-4.14,3.39-7.53,7.53-7.53h17.85         c4.14,0,7.53,3.39,7.53,7.53l0,0C1030.04,476.68,1026.65,480.07,1022.51,480.07z"/><path fill="#9764fd" d="M1303.13,480.07h-17.85c-4.14,0-7.53-3.39-7.53-7.53l0,0c0-4.14,3.39-7.53,7.53-7.53h17.85         c4.14,0,7.53,3.39,7.53,7.53l0,0C1310.66,476.68,1307.27,480.07,1303.13,480.07z"/><path fill="#ffefe8" d="M1273.31,434.79c-15.5,35.46-31.17,70.83-47.03,106.13c-17.11-1.34-32.25-9.73-42.54-22.29         c16.98-33.76,34.68-67.19,53.06-100.23C1250.89,419.61,1263.61,425.61,1273.31,434.79z" opacity=".31"/><path fill="#ffefe8" d="M1105.4,427.12c-16.26,37.27-32.71,74.43-49.36,111.54c-16.55-4.85-30.19-16.49-37.72-31.69         c15.18-29.69,30.84-59.13,47.03-88.27c2.65-0.39,5.34-0.56,8.06-0.56C1085.11,418.14,1096.09,421.42,1105.4,427.12z" opacity=".31"/></g><g><path fill="#4e86ea" d="M1209.44,638.46H1086.1c-17.07,0-31.03-13.96-31.03-31.03v-0.46c0-17.07,13.96-31.03,31.03-31.03h123.35         c17.07,0,31.03,13.96,31.03,31.03v0.46C1240.47,624.5,1226.51,638.46,1209.44,638.46z"/><path fill="#fff" d="M1087.54,606.64h-6.06l-1.24,2.55h7.69L1087.54,606.64z M1090.93,610.99l-5.5-13.12          c-0.12-0.32-0.28-0.52-0.52-0.68c-0.24-0.16-0.48-0.24-0.76-0.24c-0.28-0.04-0.52,0.04-0.8,0.2          c-0.24,0.16-0.4,0.4-0.52,0.72l-5.58,13.36c-0.04,0.16-0.08,0.32-0.08,0.44c0,0.32,0.12,0.6,0.28,0.84          c0.2,0.2,0.52,0.32,0.92,0.32c0.24,0,0.48-0.08,0.72-0.24c0.2-0.16,0.36-0.36,0.48-0.64l1.16-2.75l1.08-2.55l2.23-5.26          l2.27,5.26l1.08,2.55l1.16,2.71c0.12,0.28,0.32,0.52,0.52,0.68c0.2,0.16,0.44,0.24,0.72,0.24c0.32,0,0.6-0.12,0.88-0.36          c0.24-0.24,0.4-0.56,0.4-0.96C1091.05,611.35,1091.01,611.15,1090.93,610.99z"/><path fill="#fff" d="M1105.92,601.86c-0.28-0.96-0.72-1.79-1.28-2.51c-0.6-0.72-1.28-1.28-2.11-1.71          c-0.84-0.4-1.79-0.6-2.87-0.6h-5.34c-0.4,0-0.72,0.16-1,0.4c-0.24,0.28-0.4,0.6-0.4,1v12.92c0,0.4,0.16,0.72,0.4,1          c0.28,0.24,0.6,0.36,1,0.36h5.34c1.44,0,2.67-0.32,3.67-1.04c1-0.72,1.75-1.63,2.27-2.83c0.52-1.2,0.76-2.51,0.76-3.95          C1106.36,603.81,1106.24,602.82,1105.92,601.86z M1103.05,607.48c-0.28,0.8-0.72,1.44-1.32,1.95          c-0.6,0.48-1.36,0.72-2.31,0.72h-3.67v0.24l-0.16-0.24h0.16v-10.53h-0.24l0.24-0.2v0.2h3.67c0.72,0,1.32,0.12,1.83,0.44          c0.48,0.28,0.92,0.64,1.24,1.12c0.32,0.52,0.56,1.08,0.72,1.71c0.16,0.64,0.24,1.28,0.24,1.99          C1103.44,605.81,1103.33,606.68,1103.05,607.48z"/><path fill="#fff" d="M1121.94,601.86c-0.28-0.96-0.72-1.79-1.32-2.51c-0.56-0.72-1.28-1.28-2.11-1.71          c-0.84-0.4-1.79-0.6-2.87-0.6h-5.34c-0.4,0-0.72,0.16-0.96,0.4c-0.28,0.28-0.4,0.6-0.4,1v12.92c0,0.4,0.12,0.72,0.4,1          c0.24,0.24,0.56,0.36,0.96,0.36h5.34c1.48,0,2.67-0.32,3.67-1.04c1-0.72,1.75-1.63,2.27-2.83c0.52-1.2,0.8-2.51,0.8-3.95          C1122.38,603.81,1122.22,602.82,1121.94,601.86z M1119.03,607.48c-0.24,0.8-0.68,1.44-1.28,1.95          c-0.6,0.48-1.4,0.72-2.31,0.72h-3.71v0.24l-0.12-0.24h0.12v-10.53h-0.24l0.24-0.2v0.2h3.71c0.68,0,1.28,0.12,1.79,0.44          c0.52,0.28,0.92,0.64,1.28,1.12c0.32,0.52,0.56,1.08,0.72,1.71c0.16,0.64,0.24,1.28,0.24,1.99          C1119.47,605.81,1119.31,606.68,1119.03,607.48z"/><path fill="#fff" d="M1135.1,598.35v13c0,0.4,0.12,0.72,0.4,1c0.28,0.24,0.6,0.36,1.04,0.36s0.76-0.12,1.04-0.36          c0.28-0.28,0.44-0.6,0.44-1v-13H1135.1z M1142.48,597.39c-0.24-0.24-0.56-0.36-0.96-0.36h-9.93c-0.4,0-0.72,0.12-1,0.36          c-0.24,0.24-0.4,0.56-0.4,0.92c0,0.4,0.16,0.72,0.4,0.96c0.28,0.24,0.6,0.36,1,0.36h9.93c0.4,0,0.72-0.12,0.96-0.36          c0.28-0.24,0.4-0.52,0.4-0.92C1142.88,597.95,1142.76,597.63,1142.48,597.39z"/><path fill="#fff" d="M1158.62,601.74c-0.36-0.96-0.88-1.83-1.55-2.55c-0.68-0.76-1.48-1.32-2.43-1.75          c-0.92-0.4-1.95-0.6-3.03-0.6c-1.12,0-2.15,0.2-3.07,0.6c-0.92,0.44-1.71,1-2.39,1.75c-0.68,0.72-1.2,1.59-1.59,2.55          c-0.36,1-0.56,2.03-0.56,3.15c0,1.12,0.2,2.15,0.56,3.11c0.4,1,0.92,1.83,1.59,2.59c0.68,0.72,1.47,1.32,2.39,1.71          c0.92,0.44,1.95,0.64,3.07,0.64c1.08,0,2.11-0.2,3.03-0.64c0.96-0.4,1.75-1,2.43-1.71c0.68-0.76,1.2-1.59,1.55-2.59          c0.4-0.96,0.6-1.99,0.6-3.11C1159.22,603.77,1159.02,602.74,1158.62,601.74z M1155.67,607.6c-0.4,0.84-0.96,1.48-1.63,1.95          c-0.72,0.48-1.52,0.72-2.43,0.72c-0.96,0-1.75-0.24-2.47-0.72c-0.68-0.48-1.24-1.12-1.63-1.95c-0.4-0.8-0.6-1.71-0.6-2.71          c0-1.04,0.2-1.91,0.6-2.75c0.4-0.8,0.96-1.44,1.63-1.91c0.72-0.48,1.52-0.72,2.47-0.72c0.92,0,1.71,0.24,2.43,0.72          c0.68,0.48,1.24,1.12,1.63,1.95c0.4,0.8,0.64,1.71,0.64,2.71C1156.31,605.89,1156.07,606.8,1155.67,607.6z"/><path fill="#fff" d="M1178.64,609.59c-0.32-0.04-0.64,0-0.96,0.16c-0.36,0.2-0.76,0.32-1.16,0.4          c-0.4,0.08-0.8,0.12-1.2,0.12c-0.76,0-1.44-0.12-2.03-0.36c-0.64-0.2-1.2-0.52-1.63-0.96c-0.48-0.48-0.84-1.04-1.12-1.71          c-0.24-0.64-0.36-1.44-0.36-2.35c0-0.8,0.12-1.48,0.32-2.11c0.24-0.68,0.6-1.24,1.04-1.67c0.44-0.48,1-0.84,1.63-1.12          c0.64-0.24,1.36-0.36,2.15-0.36c0.44,0,0.84,0.04,1.24,0.12c0.4,0.12,0.76,0.24,1.12,0.4c0.32,0.16,0.64,0.2,0.96,0.16          c0.28,0,0.56-0.16,0.72-0.44c0.32-0.36,0.4-0.72,0.36-1.16c-0.08-0.4-0.32-0.72-0.72-0.92c-0.52-0.28-1.12-0.48-1.75-0.64          c-0.64-0.16-1.28-0.2-1.91-0.2c-1.16,0-2.23,0.16-3.23,0.56c-1,0.4-1.83,0.96-2.55,1.67c-0.72,0.72-1.32,1.55-1.67,2.51          c-0.4,0.96-0.6,2.03-0.6,3.19c0,1.32,0.2,2.47,0.64,3.51c0.44,1,1.04,1.83,1.79,2.51c0.76,0.68,1.59,1.16,2.55,1.52          c0.96,0.36,1.99,0.52,3.07,0.52c0.44,0,0.84-0.04,1.28-0.12c0.4-0.04,0.84-0.16,1.24-0.28c0.4-0.12,0.8-0.28,1.2-0.48          c0.36-0.16,0.6-0.48,0.68-0.88c0.08-0.36,0-0.76-0.32-1.12C1179.2,609.79,1178.92,609.63,1178.64,609.59z"/><path fill="#fff" d="M1190.96,606.64h-6.02l-1.24,2.55h7.7L1190.96,606.64z M1194.39,610.99l-5.5-13.12          c-0.12-0.32-0.28-0.52-0.52-0.68c-0.24-0.16-0.48-0.24-0.76-0.24c-0.28-0.04-0.56,0.04-0.8,0.2          c-0.24,0.16-0.44,0.4-0.56,0.72l-5.54,13.36c-0.08,0.16-0.08,0.32-0.08,0.44c0,0.32,0.08,0.6,0.28,0.84          c0.2,0.2,0.52,0.32,0.92,0.32c0.24,0,0.48-0.08,0.68-0.24c0.24-0.16,0.4-0.36,0.48-0.64l1.16-2.75l1.12-2.55l2.23-5.22          l2.23,5.22l1.12,2.55l1.16,2.71c0.12,0.28,0.28,0.52,0.52,0.68c0.2,0.16,0.44,0.24,0.72,0.24c0.32,0,0.6-0.12,0.88-0.36          c0.24-0.24,0.36-0.56,0.36-0.96C1194.47,611.35,1194.47,611.15,1194.39,610.99z"/><path fill="#fff" d="M1208.7,610.51c-0.2-0.08-0.36-0.24-0.4-0.44c-0.08-0.2-0.12-0.44-0.16-0.72c0-0.28-0.04-0.6-0.12-1          c-0.04-0.4-0.12-0.76-0.28-1.12c-0.16-0.36-0.36-0.68-0.64-1c-0.2-0.2-0.4-0.4-0.68-0.52c0.36-0.2,0.68-0.44,0.96-0.76          c0.4-0.44,0.68-0.92,0.92-1.44c0.24-0.56,0.36-1.12,0.36-1.67c0-0.96-0.2-1.75-0.64-2.51c-0.4-0.72-0.96-1.28-1.63-1.67          c-0.68-0.44-1.4-0.64-2.19-0.64h-6.46c-0.36,0-0.68,0.16-0.96,0.4c-0.24,0.28-0.4,0.6-0.4,1v12.92c0,0.4,0.16,0.72,0.52,1          c0.32,0.24,0.68,0.36,1.12,0.36c0.36,0,0.64-0.12,0.88-0.36c0.2-0.28,0.28-0.6,0.28-1V607h4.19c0.36,0,0.68,0.04,0.92,0.12          c0.24,0.08,0.44,0.2,0.64,0.36c0.16,0.16,0.28,0.36,0.36,0.56c0.08,0.24,0.16,0.48,0.16,0.72c0,0.76,0.08,1.4,0.2,1.91          c0.16,0.48,0.4,0.88,0.64,1.16c0.24,0.32,0.52,0.52,0.76,0.68c0.16,0.08,0.36,0.16,0.64,0.2c0.24,0.04,0.48,0.04,0.76,0          c0.24-0.04,0.44-0.16,0.64-0.36c0.24-0.28,0.32-0.6,0.24-1C1209.22,610.99,1209.02,610.71,1208.7,610.51z M1205.51,603.33          c-0.16,0.44-0.4,0.76-0.64,1c-0.24,0.24-0.52,0.36-0.8,0.36h-4.9v0.56l-0.28-0.56h0.28v-5.06h-0.24l0.24-0.72v0.72h4.9          c0.44,0,0.8,0.2,1.16,0.64c0.36,0.48,0.52,1,0.52,1.67C1205.75,602.42,1205.67,602.89,1205.51,603.33z"/><path fill="#fff" d="M1215.32,598.35v13c0,0.4,0.12,0.72,0.4,1c0.28,0.24,0.6,0.36,1.04,0.36c0.44,0,0.76-0.12,1.04-0.36          c0.28-0.28,0.44-0.6,0.44-1v-13H1215.32z M1222.7,597.39c-0.24-0.24-0.56-0.36-0.96-0.36h-9.93c-0.4,0-0.72,0.12-1,0.36          c-0.24,0.24-0.4,0.56-0.4,0.92c0,0.4,0.16,0.72,0.4,0.96c0.28,0.24,0.6,0.36,1,0.36h9.93c0.4,0,0.72-0.12,0.96-0.36          c0.28-0.24,0.4-0.52,0.4-0.92C1223.09,597.95,1222.97,597.63,1222.7,597.39z"/></g><g><path fill="#ffd5c6" d="M1239.26,711.36h-172.09c-10.9,0-19.82-8.92-19.82-19.82v-1.07c0-10.9,8.92-19.82,19.82-19.82h172.09         c10.9,0,19.82,8.92,19.82,19.82v1.07C1259.08,702.44,1250.16,711.36,1239.26,711.36z"/><polygon fill="#ff9b65" points="1082.3 674.04 1086.07 685.65 1098.28 685.65 1088.4 692.83 1092.17 704.44 1082.3 697.26 1072.42 704.44 1076.19 692.83 1066.31 685.65 1078.52 685.65"/><polygon fill="#ff6e00" points="1118.26 674.04 1122.04 685.65 1134.25 685.65 1124.37 692.83 1128.14 704.44 1118.26 697.26 1108.38 704.44 1112.16 692.83 1102.28 685.65 1114.49 685.65"/><polygon fill="#ff6e00" points="1154.23 674.04 1158 685.65 1170.22 685.65 1160.34 692.83 1164.11 704.44 1154.23 697.26 1144.35 704.44 1148.13 692.83 1138.25 685.65 1150.46 685.65"/><polygon fill="#ff6e00" points="1190.2 674.04 1193.97 685.65 1206.18 685.65 1196.3 692.83 1200.08 704.44 1190.2 697.26 1180.32 704.44 1184.09 692.83 1174.21 685.65 1186.43 685.65"/><polygon fill="#ff6e00" points="1226.17 674.04 1229.94 685.65 1242.15 685.65 1232.27 692.83 1236.05 704.44 1226.17 697.26 1216.29 704.44 1220.06 692.83 1210.18 685.65 1222.39 685.65"/></g></g><path fill="#ffefe8" d="M923.77,265.5v495.2c0,6.48-5.27,11.74-11.74,11.74H588.62c-6.48,0-11.74-5.27-11.74-11.74V265.5H923.77z        "/><path fill="#e86262" d="M777.68,430.6l-9.41,0.6l-45.73,2.91l0.04-2.91l0.56-66.86l46.93-35.36c0.64-0.48,1.36-0.68,2.03-0.68          c1.75,0.04,3.35,1.36,3.39,3.31L777.68,430.6z"/><polygon fill="#ffd5c6" points="713.15 431.19 788.22 431.19 788.22 455.83 712.57 455.83"/><polygon fill="#4e86ea" points="702.6 452.42 797.61 452.42 797.61 556.81 699.88 556.81"/><path fill="#d34f4f" d="M772.1,328.29c-2.31,8.17-8.45,26.19-19.3,34.49c-14.23,10.96-29.66,1.55-29.66,1.55l46.93-35.36         C770.7,328.49,771.42,328.29,772.1,328.29z"/><rect width="347.57" height="45.71" x="576.43" y="265.31" fill="#4e86ea"/><g><path fill="#ffd5c6" d="M836.83,289.26c0,5.2-4.21,9.41-9.41,9.41c-5.2,0-9.41-4.21-9.41-9.41c0-5.2,4.21-9.41,9.41-9.41         C832.61,279.85,836.83,284.07,836.83,289.26z"/><path fill="#ff8bad" d="M866.41,289.26c0,5.2-4.21,9.41-9.41,9.41s-9.41-4.21-9.41-9.41c0-5.2,4.21-9.41,9.41-9.41         S866.41,284.07,866.41,289.26z"/><path fill="#ffd364" d="M895.99,289.26c0,5.2-4.21,9.41-9.41,9.41c-5.2,0-9.41-4.21-9.41-9.41c0-5.2,4.21-9.41,9.41-9.41         C891.78,279.85,895.99,284.07,895.99,289.26z"/></g><g><path fill="#4e86ea" d="M814.47,638.46H691.13c-17.07,0-31.03-13.96-31.03-31.03v-0.46c0-17.07,13.96-31.03,31.03-31.03h123.35        c17.07,0,31.03,13.96,31.03,31.03v0.46C845.5,624.5,831.54,638.46,814.47,638.46z"/><path fill="#fff" d="M692.55,606.64h-6.02l-1.24,2.55h7.7L692.55,606.64z M695.93,610.99l-5.5-13.12         c-0.08-0.32-0.24-0.52-0.48-0.68c-0.24-0.16-0.48-0.24-0.76-0.24c-0.28-0.04-0.56,0.04-0.8,0.2         c-0.24,0.16-0.44,0.4-0.56,0.72l-5.58,13.36c-0.04,0.16-0.04,0.32-0.04,0.44c0,0.32,0.08,0.6,0.28,0.84         c0.2,0.2,0.48,0.32,0.88,0.32c0.28,0,0.52-0.08,0.72-0.24c0.24-0.16,0.4-0.36,0.48-0.64l1.16-2.75l1.12-2.55l2.23-5.22         l2.23,5.22l1.12,2.55l1.16,2.71c0.12,0.28,0.28,0.52,0.52,0.68c0.2,0.16,0.44,0.24,0.72,0.24c0.32,0,0.6-0.12,0.84-0.36         c0.28-0.24,0.4-0.56,0.4-0.96C696.05,611.35,696.01,611.15,695.93,610.99z"/><path fill="#fff" d="M710.96,601.86c-0.28-0.96-0.72-1.79-1.32-2.51c-0.56-0.72-1.28-1.28-2.11-1.71         c-0.84-0.4-1.79-0.6-2.87-0.6h-5.34c-0.36,0-0.72,0.16-0.96,0.4c-0.28,0.28-0.4,0.6-0.4,1v12.92c0,0.4,0.12,0.72,0.4,1         c0.24,0.24,0.6,0.36,0.96,0.36h5.34c1.47,0,2.67-0.32,3.67-1.04c1-0.72,1.75-1.63,2.27-2.83c0.52-1.2,0.8-2.51,0.8-3.95         C711.4,603.81,711.24,602.82,710.96,601.86z M708.09,607.48c-0.28,0.8-0.72,1.44-1.32,1.95c-0.6,0.48-1.4,0.72-2.31,0.72         h-3.71v0.24l-0.12-0.24h0.12v-10.53h-0.2l0.2-0.2v0.2h3.71c0.68,0,1.32,0.12,1.79,0.44c0.52,0.28,0.96,0.64,1.28,1.12         c0.32,0.52,0.56,1.08,0.72,1.71c0.16,0.64,0.24,1.28,0.24,1.99C708.49,605.81,708.33,606.68,708.09,607.48z"/><path fill="#fff" d="M726.95,601.86c-0.28-0.96-0.72-1.79-1.28-2.51c-0.56-0.72-1.28-1.28-2.11-1.71         c-0.84-0.4-1.79-0.6-2.87-0.6h-5.34c-0.4,0-0.72,0.16-1,0.4c-0.24,0.28-0.36,0.6-0.36,1v12.92c0,0.4,0.12,0.72,0.36,1         c0.28,0.24,0.6,0.36,1,0.36h5.34c1.44,0,2.67-0.32,3.67-1.04c1-0.72,1.75-1.63,2.27-2.83c0.52-1.2,0.76-2.51,0.76-3.95         C727.39,603.81,727.27,602.82,726.95,601.86z M724.08,607.48c-0.28,0.8-0.72,1.44-1.32,1.95c-0.6,0.48-1.36,0.72-2.31,0.72         h-3.67v0.24l-0.16-0.24h0.16v-10.53h-0.24l0.24-0.2v0.2h3.67c0.72,0,1.32,0.12,1.83,0.44c0.52,0.28,0.92,0.64,1.24,1.12         c0.36,0.52,0.6,1.08,0.76,1.71c0.12,0.64,0.2,1.28,0.2,1.99C724.48,605.81,724.36,606.68,724.08,607.48z"/><path fill="#fff" d="M740.11,598.35v13c0,0.4,0.16,0.72,0.4,1c0.28,0.24,0.64,0.36,1.04,0.36c0.44,0,0.8-0.12,1.08-0.36         c0.28-0.28,0.4-0.6,0.4-1v-13H740.11z M747.53,597.39c-0.28-0.24-0.6-0.36-0.96-0.36h-9.97c-0.4,0-0.72,0.12-0.96,0.36         c-0.28,0.24-0.4,0.56-0.4,0.92c0,0.4,0.12,0.72,0.4,0.96c0.24,0.24,0.56,0.36,0.96,0.36h9.97c0.36,0,0.68-0.12,0.96-0.36         c0.28-0.24,0.4-0.52,0.4-0.92C747.92,597.95,747.8,597.63,747.53,597.39z"/><path fill="#fff" d="M763.67,601.74c-0.36-0.96-0.88-1.83-1.56-2.55c-0.72-0.76-1.52-1.32-2.43-1.75         c-0.96-0.4-1.95-0.6-3.07-0.6c-1.08,0-2.11,0.2-3.03,0.6c-0.92,0.44-1.71,1-2.43,1.75c-0.68,0.72-1.2,1.59-1.56,2.55         c-0.36,1-0.56,2.03-0.56,3.15c0,1.12,0.2,2.15,0.56,3.11c0.36,1,0.88,1.83,1.56,2.59c0.72,0.72,1.52,1.32,2.43,1.71         c0.92,0.44,1.95,0.64,3.03,0.64c1.12,0,2.11-0.2,3.07-0.64c0.92-0.4,1.71-1,2.43-1.71c0.68-0.76,1.2-1.59,1.56-2.59         c0.36-0.96,0.56-1.99,0.56-3.11C764.23,603.77,764.03,602.74,763.67,601.74z M760.72,607.6c-0.4,0.84-0.96,1.48-1.67,1.95         c-0.68,0.48-1.52,0.72-2.43,0.72s-1.71-0.24-2.43-0.72c-0.72-0.48-1.24-1.12-1.63-1.95c-0.4-0.8-0.6-1.71-0.6-2.71         c0-1.04,0.2-1.91,0.6-2.75c0.4-0.8,0.92-1.44,1.63-1.91c0.72-0.48,1.52-0.72,2.43-0.72s1.75,0.24,2.43,0.72         c0.72,0.48,1.28,1.12,1.67,1.95c0.4,0.8,0.6,1.71,0.6,2.71C761.32,605.89,761.12,606.8,760.72,607.6z"/><path fill="#fff" d="M784.45,610.07c-0.24-0.28-0.48-0.44-0.8-0.48c-0.28-0.04-0.6,0-0.92,0.16c-0.36,0.2-0.76,0.32-1.16,0.4         c-0.4,0.08-0.8,0.12-1.24,0.12c-0.72,0-1.4-0.12-2.03-0.36c-0.6-0.2-1.16-0.52-1.63-0.96c-0.44-0.48-0.8-1.04-1.08-1.71         c-0.24-0.64-0.4-1.44-0.4-2.35c0-0.8,0.12-1.48,0.36-2.11c0.24-0.68,0.56-1.24,1.04-1.67c0.44-0.48,0.96-0.84,1.59-1.12         c0.64-0.24,1.36-0.36,2.15-0.36c0.44,0,0.88,0.04,1.28,0.12c0.4,0.12,0.76,0.24,1.12,0.4c0.32,0.16,0.64,0.2,0.92,0.16         c0.32,0,0.56-0.16,0.76-0.44c0.28-0.36,0.4-0.72,0.32-1.16c-0.04-0.4-0.28-0.72-0.68-0.92c-0.56-0.28-1.16-0.48-1.75-0.64         c-0.64-0.16-1.28-0.2-1.95-0.2c-1.16,0-2.23,0.16-3.19,0.56c-1,0.4-1.87,0.96-2.59,1.67c-0.72,0.72-1.28,1.55-1.67,2.51         c-0.4,0.96-0.6,2.03-0.6,3.19c0,1.32,0.24,2.47,0.68,3.51c0.4,1,1,1.83,1.75,2.51c0.76,0.68,1.63,1.16,2.59,1.52         c0.96,0.36,1.95,0.52,3.03,0.52c0.44,0,0.88-0.04,1.28-0.12c0.44-0.04,0.84-0.16,1.28-0.28c0.4-0.12,0.8-0.28,1.2-0.48         c0.36-0.16,0.6-0.48,0.68-0.88C784.84,610.83,784.72,610.43,784.45,610.07z"/><path fill="#fff" d="M796.01,606.64h-6.06l-1.24,2.55h7.73L796.01,606.64z M799.4,610.99l-5.5-13.12         c-0.08-0.32-0.28-0.52-0.48-0.68c-0.24-0.16-0.52-0.24-0.76-0.24c-0.28-0.04-0.56,0.04-0.8,0.2         c-0.24,0.16-0.44,0.4-0.56,0.72l-5.58,13.36c-0.04,0.16-0.04,0.32-0.04,0.44c0,0.32,0.08,0.6,0.28,0.84         c0.2,0.2,0.48,0.32,0.88,0.32c0.28,0,0.52-0.08,0.72-0.24c0.2-0.16,0.36-0.36,0.48-0.64l1.16-2.75l1.08-2.55l2.23-5.26         l2.27,5.26l1.12,2.55l1.16,2.71c0.12,0.28,0.28,0.52,0.48,0.68c0.24,0.16,0.48,0.24,0.76,0.24c0.32,0,0.6-0.12,0.84-0.36         c0.28-0.24,0.4-0.56,0.4-0.96C799.52,611.35,799.48,611.15,799.4,610.99z"/><path fill="#fff" d="M813.71,610.51c-0.2-0.08-0.32-0.24-0.4-0.44c-0.04-0.2-0.12-0.44-0.12-0.72c-0.04-0.28-0.08-0.6-0.12-1         c-0.04-0.4-0.12-0.76-0.28-1.12c-0.16-0.36-0.4-0.68-0.64-1c-0.2-0.2-0.4-0.36-0.68-0.52c0.32-0.2,0.64-0.44,0.92-0.76         c0.4-0.44,0.72-0.92,0.96-1.44c0.24-0.56,0.36-1.12,0.36-1.67c0-0.96-0.24-1.75-0.64-2.51c-0.44-0.72-0.96-1.28-1.63-1.67         c-0.68-0.44-1.44-0.64-2.19-0.64h-6.46c-0.4,0-0.72,0.16-0.96,0.4c-0.28,0.28-0.4,0.6-0.4,1v12.92c0,0.4,0.16,0.72,0.48,1         c0.32,0.24,0.72,0.36,1.12,0.36s0.68-0.12,0.88-0.36c0.2-0.28,0.32-0.6,0.32-1V607h4.19c0.36,0,0.64,0.04,0.92,0.12         c0.24,0.08,0.44,0.2,0.6,0.36c0.16,0.16,0.32,0.36,0.4,0.56c0.08,0.24,0.12,0.48,0.12,0.72c0,0.76,0.08,1.4,0.24,1.91         c0.16,0.48,0.36,0.88,0.6,1.16c0.28,0.32,0.52,0.52,0.8,0.68c0.16,0.08,0.36,0.16,0.6,0.2c0.28,0.04,0.52,0.04,0.76,0         c0.28-0.04,0.48-0.16,0.64-0.36c0.24-0.28,0.36-0.6,0.28-1C814.27,610.99,814.03,610.71,813.71,610.51z M810.52,603.33         c-0.16,0.44-0.36,0.76-0.6,1c-0.28,0.24-0.52,0.36-0.8,0.36h-4.9v0.56l-0.32-0.56h0.32v-5.06h-0.28l0.28-0.72v0.72h4.9         c0.4,0,0.8,0.2,1.12,0.64c0.36,0.48,0.56,1,0.56,1.67C810.8,602.42,810.72,602.89,810.52,603.33z"/><path fill="#fff" d="M820.33,598.35v13c0,0.4,0.16,0.72,0.4,1c0.28,0.24,0.64,0.36,1.04,0.36c0.44,0,0.8-0.12,1.08-0.36         c0.28-0.28,0.4-0.6,0.4-1v-13H820.33z M827.74,597.39c-0.28-0.24-0.6-0.36-1-0.36h-9.93c-0.4,0-0.72,0.12-0.96,0.36         c-0.28,0.24-0.4,0.56-0.4,0.92c0,0.4,0.12,0.72,0.4,0.96c0.24,0.24,0.56,0.36,0.96,0.36h9.93c0.4,0,0.72-0.12,1-0.36         c0.24-0.24,0.4-0.52,0.4-0.92C828.14,597.95,827.98,597.63,827.74,597.39z"/></g><g><path fill="#ffd5c6" d="M844.29,711.36H672.2c-10.9,0-19.82-8.92-19.82-19.82v-1.07c0-10.9,8.92-19.82,19.82-19.82h172.09        c10.9,0,19.82,8.92,19.82,19.82v1.07C864.11,702.44,855.19,711.36,844.29,711.36z"/><polygon fill="#ff6e00" points="687.33 674.04 691.1 685.65 703.31 685.65 693.43 692.83 697.21 704.44 687.33 697.26 677.45 704.44 681.22 692.83 671.34 685.65 683.55 685.65"/><polygon fill="#ff6e00" points="723.3 674.04 727.07 685.65 739.28 685.65 729.4 692.83 733.17 704.44 723.3 697.26 713.42 704.44 717.19 692.83 707.31 685.65 719.52 685.65"/><polygon fill="#ff6e00" points="759.26 674.04 763.04 685.65 775.25 685.65 765.37 692.83 769.14 704.44 759.26 697.26 749.38 704.44 753.16 692.83 743.28 685.65 755.49 685.65"/><polygon fill="#ff6e00" points="795.23 674.04 799 685.65 811.22 685.65 801.34 692.83 805.11 704.44 795.23 697.26 785.35 704.44 789.13 692.83 779.25 685.65 791.46 685.65"/><polygon fill="#ff9b65" points="831.2 674.04 834.97 685.65 847.18 685.65 837.3 692.83 841.08 704.44 831.2 697.26 821.32 704.44 825.09 692.83 815.21 685.65 827.43 685.65"/></g><g><path fill="#e09daf" d="M1133.83,677.33c-0.28,0.8-0.56,1.63-0.92,2.43c-3.51,8.49-9.69,16.94-15.79,24.4       c-1.44,1.75-3.59,4.7-6.34,8.57c-0.4,0.6-0.88,1.28-1.36,1.99c-28.55,40.83-110.4,169.21-115.82,194.09       c-1.79,8.17-5.22,28.51-9.21,53.15c-6.58,0.32-13.2,0.48-19.86,0.48c-66.9,0-130.14-15.55-186.35-43.26       c-11.28-5.54-22.29-11.56-32.97-18.1c19.46-92.74,48-223.31,58.29-240.5c25.48-42.58,52.71-41.46,59.88-40.31h0.04       c1.2,0.2,1.79,0.4,1.79,0.4s19.22-51.51,61.56-46.61c0,0,0.24-0.64,0.72-1.63v-0.04c1.24-2.47,4.07-7.62,9.21-12.36       c0.12-0.16,0.24-0.32,0.4-0.44c0-0.04,0.04-0.04,0.04-0.04c9.09-8.53,25.12-16.19,51.15-8.13h0.04c0.44,0.12,0.8,0.24,1.24,0.4       c0,0,0.04-0.16,0.16-0.44v-0.04c1-4.47,9.53-40.47,22.29-71.69v-0.04c0.32-0.84,0.64-1.67,1.04-2.51       c2.35-5.74,4.94-11.28,7.58-16.31c0.16-0.32,0.28-0.56,0.4-0.84c3.07-5.74,6.26-10.92,9.57-15.15l0.04-0.04       c0.4-0.52,0.8-0.96,1.12-1.44c0.04-0.04,0.08-0.12,0.12-0.16l0.48-0.48c5.74-6.74,11.84-10.65,18.18-9.93       c1.87,0.2,3.79,0.6,5.58,1.12c0.36,0.04,0.72,0.12,1.08,0.2c0.12,0.04,0.24,0.08,0.36,0.12c0.16,0,0.36,0.04,0.52,0.12       c2.27,0.76,4.39,1.67,6.26,2.79c0.08,0.04,0.16,0.08,0.24,0.16c0.04,0,0.08,0,0.12,0.04c4.03,2.43,7.06,5.82,8.49,9.97       c1.28,3.71,1.91,8.13,2.03,12.96c0,0,0,0.04,0,0.08v0.96c0.32,10.84-1.71,23.84-4.31,36.08c0,0,0,0,0,0.04l-0.16,0.68       c-2.79,12.96-6.06,25.16-7.85,33.37c-5.1,23.64-34.37,164.82-37.52,179.89v0.04c0,0,0,0,0,0.04c-0.2,0.68-0.24,1.12-0.24,1.2       c0.12-0.08,0.36-0.4,0.72-0.84l0.04-0.04c0.4-0.48,1.04-1.24,1.83-2.15c0-0.04,0-0.04,0.04-0.08       c12.92-15.23,69.73-80.06,91.14-67.7C1136.38,651.97,1138.33,664.69,1133.83,677.33z"/><path d="M848.91,660.38c-0.11,0-0.23-0.02-0.35-0.05c-0.62-0.19-0.98-0.85-0.79-1.48c0.85-2.79,21.11-68.49,52.74-81.88       c0.63-0.31,16.85-8.01,28.08-4.27c0.62,0.21,0.96,0.88,0.75,1.5c-0.21,0.62-0.88,0.96-1.5,0.75       c-10.3-3.45-26.19,4.1-26.36,4.18c-30.66,12.97-51.24,79.73-51.44,80.4C849.89,660.05,849.42,660.38,848.91,660.38z"/><path d="M902.18,646.46c-0.1,0-0.19-0.01-0.29-0.04c-0.63-0.16-1.02-0.81-0.85-1.44c0.87-3.41,21.63-83.64,47.3-94.64       c0.62-0.34,17.63-9.19,40.88,0.6c0.6,0.25,0.89,0.95,0.63,1.55c-0.26,0.6-0.95,0.89-1.55,0.63       c-22.16-9.33-38.77-0.74-38.94-0.65c-24.69,10.59-45.82,92.26-46.03,93.09C903.2,646.1,902.71,646.46,902.18,646.46z"/><path d="M1026.3,711.84c-0.08,0-0.16-0.01-0.24-0.02c-0.64-0.13-1.06-0.75-0.93-1.39l25.43-126.53       c10.42-42.8,28.14-126.99,20.72-139.62c-4.04-6.88-11.9-11.07-20.17-10.81c-11.3,0.44-21.68,9.19-29.2,24.65       c-18.11,37.19-56.44,185.96-56.83,187.46c-0.16,0.63-0.81,1-1.44,0.85c-0.63-0.16-1.02-0.81-0.85-1.45       c0.39-1.5,38.78-150.5,56.99-187.9c10.69-21.97,24.16-25.7,31.24-25.98c9.17-0.22,17.83,4.35,22.31,11.98       c9.75,16.61-19.22,136.25-20.46,141.33l-25.42,126.48C1027.34,711.45,1026.85,711.84,1026.3,711.84z"/><path d="M1036.34,491.37c-9.26,0-20.99-4.04-24.85-12.71c-0.27-0.6,0-1.3,0.6-1.57c0.6-0.26,1.3,0,1.57,0.6       c4.09,9.2,18.96,12.58,27.39,10.87c18.84-3.83,22.61-27,23.33-34.01c0.23-2.25-1.35-4.31-3.61-4.69l-31.04-5.23       c-0.65-0.11-1.08-0.72-0.97-1.37c0.11-0.64,0.73-1.08,1.37-0.97l31.04,5.23c3.48,0.58,5.93,3.77,5.57,7.27       c-0.75,7.41-4.78,31.94-25.21,36.09C1039.95,491.21,1038.19,491.37,1036.34,491.37z"/><path d="M1133.84,677.34c-0.29,0.81-0.57,1.61-0.95,2.42l-19.54-19.25c-0.9-0.9-2.09-1.33-3.32-1.19       c-1.28,0.09-2.37,0.76-3.13,1.8c-4.84,6.97-12.47,20.63-9.63,33.62c1.56,7.07,6.07,13.14,13.52,17.97       c-0.43,0.62-0.9,1.28-1.38,1.99c-7.92-5.22-12.76-11.76-14.46-19.44c-3.04-13.9,4.98-28.22,10.01-35.52       c1.14-1.61,2.89-2.61,4.84-2.8s3.84,0.47,5.22,1.85L1133.84,677.34z"/></g><polygon fill="#4e86ea" points="998.14 242.94 924.68 239.49 954.9 172.65 970.53 196.77 1009.08 149.9 1033.77 193.97 981.72 215.6"/><circle cx="949.62" cy="410.05" r="13.57" fill="#fff"/><g><path fill="#fff" d="M1131.18,241.37c0.34-2.03,0.3-4.16,0.51-6.17c0.32-2.99,0.53-5.99,0.79-8.98      c0.34-3.82,0.67-7.64,1.01-11.46c0.1-1.09,1.65-1.19,1.89-0.13l5.81,25.56c0.83,3.64,3.94,6.3,7.66,6.56l26.26,1.79      c1.08,0.07,1.23,1.59,0.19,1.88l-25.47,6.94c-3.34,0.91-5.78,3.77-6.17,7.2l-3.22,28.57c-0.12,1.09-1.68,1.15-1.89,0.08      l-5.01-25.84c-0.72-3.69-3.78-6.46-7.52-6.8l-29.09-3.33c-0.62-0.07-0.68-0.95-0.08-1.11c4.55-1.19,9.1-2.38,13.65-3.57      c3.17-0.83,5.98-1.14,9.77-2.3c3.64-1.12,7.44-1.67,9.62-5.23C1130.59,243.88,1130.96,242.65,1131.18,241.37z"/><path fill="#fff" d="M779.64,203.36c0.34-2.03,0.3-4.16,0.51-6.17c0.32-2.99,0.53-5.99,0.79-8.98      c0.34-3.82,0.67-7.64,1.01-11.46c0.1-1.09,1.65-1.19,1.89-0.13l5.81,25.56c0.83,3.64,3.94,6.3,7.66,6.56l26.26,1.79      c1.08,0.07,1.23,1.59,0.19,1.88l-25.47,6.94c-3.34,0.91-5.78,3.77-6.17,7.2l-3.22,28.57c-0.12,1.09-1.68,1.15-1.89,0.08      l-5.01-25.84c-0.72-3.69-3.78-6.46-7.52-6.8l-29.09-3.33c-0.62-0.07-0.68-0.95-0.08-1.11c4.55-1.19,9.1-2.38,13.65-3.57      c3.17-0.83,5.98-1.14,9.77-2.3c3.64-1.12,7.44-1.67,9.62-5.23C779.05,205.88,779.43,204.64,779.64,203.36z"/><path fill="#fff" d="M1330.7,537.25c0.34-2.03,0.3-4.16,0.51-6.17c0.32-2.99,0.53-5.99,0.79-8.98      c0.34-3.82,0.67-7.64,1.01-11.46c0.1-1.09,1.65-1.19,1.89-0.13l5.81,25.56c0.83,3.64,3.94,6.3,7.66,6.56l26.26,1.79      c1.08,0.07,1.23,1.59,0.19,1.88l-25.47,6.94c-3.34,0.91-5.78,3.77-6.17,7.2l-3.22,28.57c-0.12,1.09-1.68,1.15-1.89,0.08      l-5.01-25.84c-0.72-3.69-3.78-6.46-7.52-6.8l-29.09-3.33c-0.62-0.07-0.68-0.95-0.08-1.11c4.55-1.19,9.1-2.38,13.65-3.57      c3.17-0.83,5.98-1.13,9.77-2.3c3.64-1.12,7.44-1.67,9.62-5.23C1330.11,539.77,1330.48,538.53,1330.7,537.25z"/><path fill="#fff" d="M1107.36,817.6c0.34-2.03,0.3-4.16,0.51-6.17c0.32-2.99,0.53-5.99,0.79-8.98      c0.34-3.82,0.67-7.64,1.01-11.46c0.1-1.09,1.65-1.19,1.89-0.13l5.81,25.56c0.83,3.64,3.94,6.3,7.66,6.56l26.26,1.79      c1.08,0.07,1.23,1.59,0.19,1.88l-25.47,6.94c-3.34,0.91-5.78,3.77-6.17,7.2l-3.22,28.57c-0.12,1.09-1.68,1.15-1.89,0.08      l-5.01-25.84c-0.72-3.69-3.78-6.46-7.52-6.8l-29.09-3.33c-0.62-0.07-0.68-0.95-0.08-1.11c4.55-1.19,9.1-2.38,13.65-3.57      c3.17-0.83,5.98-1.13,9.77-2.3c3.64-1.12,7.44-1.67,9.62-5.23C1106.76,820.11,1107.14,818.88,1107.36,817.6z"/><path fill="#fff" d="M669.09,766.21c0.34-2.03,0.3-4.16,0.51-6.17c0.32-2.99,0.53-5.99,0.79-8.98      c0.34-3.82,0.67-7.64,1.01-11.46c0.1-1.09,1.65-1.19,1.89-0.13l5.81,25.56c0.83,3.64,3.94,6.3,7.66,6.56l26.26,1.79      c1.08,0.07,1.23,1.59,0.19,1.88l-25.47,6.94c-3.34,0.91-5.78,3.77-6.17,7.2l-3.22,28.57c-0.12,1.09-1.68,1.15-1.89,0.08      l-5.01-25.84c-0.72-3.69-3.78-6.46-7.52-6.8l-29.09-3.33c-0.62-0.07-0.68-0.95-0.08-1.11c4.55-1.19,9.1-2.38,13.65-3.57      c3.17-0.83,5.98-1.13,9.77-2.3c3.64-1.12,7.44-1.67,9.62-5.23C668.5,768.73,668.87,767.49,669.09,766.21z"/><circle cx="1094.17" cy="178.63" r="13.57" fill="#fff"/><circle cx="1236.01" cy="803.66" r="13.57" fill="#fff"/><path fill="#fff" d="M1054.81,908.85c0,7.5-6.08,13.57-13.57,13.57c-7.5,0-13.57-6.08-13.57-13.57c0-7.5,6.08-13.57,13.57-13.57      C1048.73,895.27,1054.81,901.35,1054.81,908.85z"/><circle cx="572.98" cy="542.38" r="13.57" fill="#fff"/></g></svg>