<svg xmlns="http://www.w3.org/2000/svg" xmlns:xlink="http://www.w3.org/1999/xlink" width="1447.57" height="1109.914" enable-background="new 0 0 1920 1080" viewBox="158.031 65.406 1447.57 1109.914"><path fill="#6b98df" d="M1490.27,314.05l-147.71-38.93c-5.48-1.44-8.76-7.06-7.31-12.54l36.65-139.07      c1.44-5.48,7.06-8.76,12.54-7.31l147.71,38.93c5.48,1.44,8.76,7.06,7.31,12.54l-36.65,139.07      C1501.37,312.22,1495.75,315.5,1490.27,314.05z"/><path fill="#ececec" d="M1459.12,246.44c-0.01,0.02-0.4-0.05-1.15-0.22c-0.81-0.19-1.9-0.45-3.26-0.78         c-2.9-0.73-6.99-1.75-12.05-3.02c-10.27-2.65-24.44-6.3-40.38-10.4l-0.33-0.08l0.04-0.34c0.26-2.21,0.53-4.56,0.81-6.93         c2.43-20.27,4.6-38.36,6.02-50.19l0.18,0.27c-4.53-1.23-8.15-2.22-10.72-2.92c-1.19-0.34-2.13-0.61-2.84-0.81         c-0.64-0.19-0.97-0.3-0.97-0.32c0.01-0.02,0.35,0.04,1,0.19c0.72,0.17,1.67,0.4,2.88,0.68c2.58,0.64,6.22,1.55,10.78,2.69         l0.21,0.05l-0.02,0.22c-1.35,11.83-3.41,29.93-5.73,50.22c-0.28,2.37-0.55,4.72-0.81,6.93l-0.29-0.42         c15.92,4.21,30.07,7.94,40.32,10.65c5.03,1.36,9.1,2.47,11.99,3.25c1.35,0.38,2.43,0.69,3.23,0.91         C1458.75,246.29,1459.13,246.41,1459.12,246.44z"/><path fill="#ececec" d="M1403.8,219.45c0-0.01,0.1,0,0.29,0.04c0.23,0.05,0.51,0.11,0.85,0.19c0.8,0.19,1.88,0.45,3.26,0.79         c2.9,0.73,7.02,1.77,12.17,3.06c10.43,2.69,25.02,6.44,41.91,10.79l-0.44,0.21c3.08-6.72,6.41-14,9.86-21.52         c1.78-3.87,3.52-7.67,5.19-11.3l0.26,0.54c-19.58-5.16-36.87-9.72-49.32-13c-6.15-1.66-11.1-2.99-14.58-3.93         c-1.66-0.46-2.97-0.83-3.92-1.09c-0.41-0.12-0.74-0.22-1.01-0.3c-0.23-0.07-0.34-0.11-0.34-0.13c0-0.01,0.12,0.01,0.36,0.06         c0.27,0.06,0.61,0.14,1.03,0.23c0.96,0.23,2.28,0.55,3.95,0.96c3.49,0.88,8.47,2.14,14.64,3.7         c12.47,3.22,29.78,7.69,49.39,12.75l0.45,0.12l-0.19,0.42c-1.66,3.63-3.41,7.43-5.18,11.3c-3.46,7.52-6.8,14.79-9.89,21.51         l-0.13,0.29l-0.31-0.08c-16.86-4.46-31.42-8.31-41.84-11.06c-5.13-1.39-9.23-2.5-12.12-3.28c-1.37-0.38-2.44-0.69-3.23-0.91         c-0.33-0.1-0.61-0.18-0.83-0.25C1403.89,219.49,1403.8,219.46,1403.8,219.45z"/><path fill="#ececec" d="M1412.55,250.73c-0.07-0.02,0.06-0.52,0.03-1.43c-0.03-0.89-0.3-2.25-1.31-3.49         c-0.97-1.23-2.81-2.25-4.9-2.03c-2.05,0.17-4.2,1.75-4.78,4.09c-0.63,2.33,0.46,4.76,2.18,5.91         c1.71,1.21,3.82,1.23,5.27,0.62c1.49-0.59,2.39-1.64,2.85-2.4C1412.34,251.22,1412.48,250.71,1412.55,250.73         c0.03,0.01,0,0.54-0.4,1.41c-0.4,0.85-1.29,2.05-2.91,2.77c-1.57,0.73-3.93,0.8-5.89-0.54c-1.96-1.26-3.25-4.03-2.53-6.7         c0.67-2.68,3.15-4.47,5.48-4.61c2.37-0.21,4.4,1.01,5.4,2.41c1.06,1.41,1.25,2.9,1.18,3.84         C1412.82,250.26,1412.58,250.75,1412.55,250.73z"/><path fill="#ececec" d="M1449.06,260.26c-0.07-0.02,0.06-0.52,0.03-1.43c-0.03-0.89-0.3-2.25-1.31-3.49         c-0.97-1.23-2.81-2.25-4.9-2.03c-2.05,0.17-4.2,1.75-4.78,4.09c-0.63,2.33,0.46,4.76,2.18,5.91         c1.71,1.21,3.82,1.23,5.27,0.62c1.49-0.59,2.39-1.64,2.85-2.4C1448.86,260.75,1448.99,260.24,1449.06,260.26         c0.03,0.01,0,0.54-0.4,1.41c-0.4,0.85-1.29,2.05-2.91,2.77c-1.56,0.73-3.93,0.8-5.89-0.54c-1.96-1.26-3.25-4.03-2.53-6.7         c0.67-2.68,3.15-4.47,5.48-4.61c2.37-0.21,4.4,1.01,5.41,2.41c1.06,1.41,1.25,2.9,1.18,3.84         C1449.33,259.79,1449.1,260.27,1449.06,260.26z"/><circle cx="1475.64" cy="195.32" r="16.73" fill="#fafafa" transform="rotate(-33.716 1475.7 195.274)"/><path fill="#ff4f5b" d="M1486.01,191.57c0.06,0.09-1.01,0.87-2.78,2.06c-1.77,1.19-4.25,2.79-7.01,4.51        c-1.03,0.63-2.02,1.25-2.95,1.82l-0.31,0.19l-0.2-0.3c-2.69-4.01-4.53-6.97-4.39-7.07c0.15-0.1,2.24,2.69,5.01,6.65        l-0.51-0.11c0.93-0.59,1.91-1.21,2.93-1.85c2.76-1.72,5.28-3.25,7.13-4.31C1484.78,192.09,1485.95,191.48,1486.01,191.57z"/><g><path fill="#e35757" d="M1472.27,529.2l-139.38-35.14c-6.59-1.66-10.59-8.35-8.93-14.95l33.01-130.96       c1.66-6.59,8.35-10.59,14.95-8.93l139.38,35.14c6.59,1.66,10.59,8.35,8.93,14.95l-33.01,130.96       C1485.56,526.87,1478.87,530.87,1472.27,529.2z"/><path fill="#fafafa" d="M1384.7,412.18l1.27,34.63l63.49,16.01l17.82-28.43c0,0-6.14-3.81-10.62-3.97l7.47-34.63       c0.72-3.36-2.17-6.4-5.56-5.83l-6.84,1.13l-35.81-9.03l-3.6-3.1c-2.72-2.34-6.95-0.98-7.81,2.5l-8.32,34.03       C1396.19,415.5,1391.08,412.5,1384.7,412.18z"/><path fill="#e1e1e1" d="M1402.36,434.52c2.45,4.77,6.69,8.49,11.5,10.84c4.82,2.35,10.2,3.39,15.55,3.6       c2.92,0.11,6.16-0.14,8.22-2.21c2.13-2.14,2.3-5.48,2.34-8.49c0.05-3.87,0.1-7.79-0.93-11.52c-1.03-3.73-3.29-7.3-6.77-8.99       c-4.71-2.3-10.42-0.68-14.99,1.9c-5.99,3.38-11.06,8.37-14.55,14.3"/><rect width="3.46" height="30.28" x="1382.13" y="446.76" fill="#1a2e35" transform="rotate(14.152 1383.781 461.87)"/><rect width="3.46" height="15.46" x="1395.73" y="449.95" fill="#1a2e35" transform="rotate(14.14 1397.567 457.897)"/><rect width="3.46" height="15.46" x="1429.39" y="458.44" fill="#1a2e35" transform="rotate(14.14 1431.221 466.383)"/><rect width="3.46" height="30.28" x="1442.42" y="461.95" fill="#1a2e35" transform="rotate(14.14 1444.246 477.31)"/><path fill="#1a2e35" d="M1404.05,431.51c-0.25-0.06,2.31-11.11,5.73-24.68c3.42-13.57,6.4-24.51,6.65-24.45        c0.25,0.06-2.31,11.11-5.73,24.68C1407.28,420.63,1404.31,431.58,1404.05,431.51z"/><path fill="#1a2e35" d="M1439.92,440.55c-0.25-0.06,2.31-11.11,5.73-24.68c3.42-13.57,6.4-24.51,6.65-24.45        c0.25,0.06-2.31,11.11-5.73,24.68C1443.15,429.67,1440.17,440.62,1439.92,440.55z"/><path fill="#1a2e35" d="M1456.66,430.42c0,0.05-0.63,0.07-1.77,0.08c-0.3,0-0.61,0-0.95,0c-0.36,0.04-0.73,0.09-1.13,0.14        c-0.41,0.05-0.85,0.1-1.31,0.16c-0.46,0.12-0.94,0.24-1.44,0.37c-2,0.56-4.35,1.7-6.29,3.82c-1.95,2.07-3.44,5.13-4,8.54        l-0.08,0.48l-0.45-0.11c-5.14-1.28-10.91-2.72-16.99-4.24c-6.9-1.76-13.39-3.42-19.01-4.85l-0.4-0.1l0.09-0.4        c0.72-3.14,0.53-6.19-0.18-8.73c-0.66-2.56-1.81-4.62-2.9-6.18c-2.26-3.11-4.29-4.22-4.18-4.34c0.02-0.03,0.51,0.24,1.36,0.85        c0.84,0.63,2.01,1.65,3.21,3.2c1.18,1.55,2.43,3.64,3.17,6.28c0.79,2.61,1.05,5.79,0.33,9.1l-0.3-0.5        c5.63,1.4,12.13,3.02,19.04,4.74c6.07,1.55,11.83,3.01,16.97,4.32l-0.53,0.37c0.63-3.64,2.23-6.75,4.33-8.92        c2.09-2.2,4.59-3.33,6.68-3.83c0.52-0.11,1.02-0.22,1.5-0.33c0.47-0.04,0.92-0.07,1.35-0.1c0.41-0.03,0.8-0.05,1.16-0.08        c0.34,0.02,0.67,0.04,0.97,0.06C1456.05,430.31,1456.67,430.37,1456.66,430.42z"/><path fill="#1a2e35" d="M1402.59,434.43c-0.01,0.15-1.28,0.07-3.24,0.44c-1.95,0.35-4.62,1.26-6.97,3.16        c-2.35,1.9-3.81,4.31-4.56,6.14c-0.77,1.84-0.96,3.1-1.11,3.07c-0.1-0.01-0.15-1.31,0.49-3.31c0.62-1.97,2.07-4.61,4.59-6.65        c2.52-2.03,5.4-2.89,7.46-3.08C1401.34,434,1402.61,434.33,1402.59,434.43z"/><path fill="#1a2e35" d="M1448.67,463.33c-0.15-0.03,0.16-1.4,0.16-3.61c0.01-2.2-0.43-5.29-1.94-8.28c-1.51-3-3.72-5.19-5.49-6.5        c-1.77-1.33-3.06-1.89-2.99-2.03c0.03-0.1,1.43,0.25,3.37,1.48c1.93,1.21,4.36,3.45,5.95,6.62c1.59,3.17,1.94,6.45,1.76,8.73        C1449.32,462.04,1448.76,463.37,1448.67,463.33z"/></g><rect width="449" height="339" x="894.68" y="179.5" fill="#fff"/><g><path fill="#1e1814" d="M840.14,554.16c-34.92-123.78-138.57-119.36-138.57-119.36s25.91-44.21,16.9-79.69      c-9.01-35.49-104.77-18.28-104.77-18.28s-95.76-17.21-104.77,18.28c-9.01,35.49,16.9,79.69,16.9,79.69      s-103.64-4.42-138.57,119.36c-34.92,123.78,70.97,324.66,70.97,324.66H613.7h155.47C769.17,878.81,875.06,677.94,840.14,554.16z      "/><rect width="839.88" height="26.69" x="421.35" y="878.81" fill="#1e1814"/><path fill="#f2b3c1" d="M925.06,652.4l-1.57-11.64c-21.42,17.66-45.18,25-62.16,28.04c-13.78,2.46-23.09,2.09-23.09,2.09       l3.66,11.67l31.01,98.81l59.26-76.27L925.06,652.4z"/><path fill="#f2b3c1" d="M1105.29,788.77v-26.81L932.16,705.1l-59.26,76.27l226.23,52.98c4.69,1.1,9.53,1.28,14.28,0.47       c21.32-3.58,77.22-20.13,77.58-95.25L1105.29,788.77z"/><circle cx="905" cy="740" r="44" fill="#f2b3c1"/><path fill="#f2b3c1" d="M925.06,652.4l-83.16,30.16l-3.66-11.67c0,0,9.31,0.37,23.09-2.09c16.99-3.04,40.74-10.38,62.16-28.04       L925.06,652.4z"/><polygon fill="#f2b3c1" points="890.72 785.54 987.59 722.19 928.8 794.46"/><path fill="#ffae01" d="M688.58,605.73c-1.65-0.98-116.42-67.56-163.38-94.8c-10.76,6.12-20.61,14.09-28.21,24.48        c-29.81,40.76-27.09,112.47,11.63,190.63l42.85,43.8C636.07,769.84,688.58,605.73,688.58,605.73z"/><path fill="#ffae01" d="M861.33,668.81c19.32-3.45,47.4-12.47,70.83-35.9c0,0-82.61-126.88-108.98-142        c-26.37-15.13-76.54-6.76-76.54-6.76l-131.36,6.82c0,0-51.08-2.2-90.08,19.97C488,542,480,566,480,606        s28.62,120.04,28.62,120.04c6.92,13.97,14.98,28.14,24.22,42.37c0,0,5.77,60.22-34.42,85.31l26.53,25.09h378.53L838.24,670.9        C838.24,670.9,847.56,671.27,861.33,668.81z"/><defs><path id="a" d="M615.28,490.96c0,0-83.16-3.59-118.29,44.44c-35.13,48.03-25.09,139.08,35.85,233         c0,0,5.77,60.22-34.41,85.31l26.53,25.09h378.54L838.24,670.9c0,0,53.77,2.16,93.92-37.99c0,0-82.6-126.88-108.97-142.01         c-26.37-15.12-76.55-6.76-76.55-6.76L615.28,490.96z"/></defs><clipPath id="b"><use overflow="visible" xlink:href="#a"/></clipPath><g clip-path="url(#b)"><path fill="#757d02" d="M313.07,940.16l-0.89-0.47c20.15-38.05,34.92-54.99,49.2-71.38c14.24-16.35,28.97-33.25,49.07-71.19           c20.09-37.95,25.8-59.63,31.31-80.59c5.53-21.02,11.25-42.76,31.4-80.81c20.15-38.05,34.92-54.99,49.2-71.38           c14.24-16.34,28.97-33.24,49.06-71.19c20.09-37.94,25.8-59.62,31.31-80.59c5.53-21.02,11.25-42.76,31.4-80.8           c20.15-38.05,34.92-54.99,49.2-71.38c14.24-16.34,28.97-33.24,49.06-71.19l0.89,0.47c-20.15,38.05-34.91,54.99-49.19,71.38           c-14.24,16.34-28.97,33.24-49.06,71.19c-20.09,37.94-25.8,59.62-31.31,80.59c-5.53,21.02-11.25,42.76-31.4,80.81           c-20.15,38.05-34.91,54.99-49.19,71.38c-14.24,16.34-28.97,33.24-49.07,71.19c-20.1,37.95-25.8,59.63-31.31,80.59           c-5.53,21.02-11.25,42.76-31.4,80.81c-20.15,38.05-34.92,54.99-49.2,71.38C347.9,885.32,333.17,902.22,313.07,940.16z"/><path fill="#757d02" d="M382.83,977.1l-0.89-0.47c20.15-38.05,34.92-54.99,49.2-71.38c14.24-16.34,28.97-33.25,49.07-71.19           c20.09-37.95,25.8-59.63,31.31-80.59c5.53-21.02,11.25-42.76,31.4-80.81c20.15-38.05,34.91-54.99,49.2-71.38           c14.24-16.34,28.97-33.25,49.06-71.19c20.09-37.94,25.8-59.62,31.31-80.59c5.53-21.02,11.25-42.76,31.4-80.81           c20.15-38.05,34.91-54.99,49.2-71.38c14.24-16.34,28.97-33.24,49.06-71.19l0.89,0.47c-20.15,38.05-34.91,54.99-49.19,71.38           c-14.24,16.34-28.97,33.24-49.06,71.19c-20.09,37.94-25.8,59.62-31.31,80.59c-5.53,21.02-11.25,42.76-31.4,80.81           c-20.15,38.05-34.91,54.99-49.2,71.38c-14.24,16.34-28.97,33.25-49.06,71.19c-20.1,37.95-25.8,59.63-31.31,80.59           c-5.53,21.02-11.25,42.76-31.4,80.81c-20.15,38.05-34.92,54.99-49.2,71.38C417.65,922.26,402.93,939.16,382.83,977.1z"/><path fill="#757d02" d="M522.35,1050.99l-0.89-0.47c20.15-38.05,34.92-54.99,49.2-71.38c14.24-16.35,28.97-33.25,49.07-71.19           c20.1-37.95,25.8-59.63,31.31-80.59c5.53-21.02,11.25-42.76,31.4-80.81c20.15-38.05,34.91-54.99,49.2-71.38           c14.24-16.34,28.97-33.24,49.06-71.19c20.09-37.94,25.8-59.62,31.31-80.59c5.53-21.02,11.25-42.76,31.4-80.81           c20.15-38.05,34.91-54.99,49.2-71.38c14.24-16.34,28.97-33.24,49.06-71.19l0.89,0.47c-20.15,38.05-34.91,54.99-49.19,71.38           c-14.24,16.34-28.97,33.24-49.06,71.19c-20.09,37.94-25.8,59.62-31.31,80.59c-5.53,21.02-11.25,42.76-31.4,80.81           c-20.15,38.05-34.91,54.99-49.2,71.38c-14.24,16.34-28.97,33.24-49.06,71.19c-20.1,37.95-25.8,59.63-31.31,80.59           c-5.53,21.02-11.25,42.76-31.4,80.81c-20.15,38.05-34.92,54.99-49.2,71.38C557.17,996.14,542.44,1013.04,522.35,1050.99z"/><path fill="#757d02" d="M452.59,1014.05l-0.89-0.47c20.15-38.05,34.92-54.99,49.2-71.38c14.24-16.35,28.97-33.25,49.07-71.19           c20.1-37.95,25.8-59.63,31.31-80.59c5.53-21.02,11.25-42.76,31.4-80.81c20.15-38.05,34.91-54.99,49.19-71.38           c14.24-16.34,28.97-33.25,49.06-71.19c20.09-37.94,25.8-59.62,31.31-80.59c5.53-21.02,11.25-42.76,31.4-80.81           c20.15-38.05,34.91-54.99,49.2-71.38c14.24-16.34,28.97-33.24,49.06-71.19l0.89,0.47c-20.15,38.05-34.91,54.99-49.19,71.38           c-14.24,16.34-28.97,33.24-49.06,71.19c-20.09,37.94-25.8,59.62-31.31,80.59c-5.53,21.02-11.25,42.76-31.4,80.81           c-20.15,38.05-34.91,54.99-49.2,71.38c-14.24,16.34-28.97,33.25-49.06,71.19c-20.1,37.95-25.8,59.63-31.31,80.59           c-5.53,21.02-11.25,42.76-31.4,80.81c-20.15,38.05-34.92,54.99-49.2,71.38C487.41,959.2,472.68,976.1,452.59,1014.05z"/><path fill="#757d02" d="M592.1,1087.93l-0.89-0.47c20.15-38.05,34.92-54.99,49.2-71.38c14.24-16.34,28.97-33.25,49.07-71.19           c20.09-37.95,25.8-59.63,31.31-80.59c5.53-21.02,11.25-42.76,31.4-80.81c20.15-38.05,34.91-54.99,49.2-71.38           c14.24-16.34,28.97-33.24,49.06-71.19c20.09-37.94,25.8-59.62,31.31-80.59c5.53-21.02,11.25-42.76,31.4-80.8           c20.15-38.05,34.91-54.99,49.19-71.38c14.24-16.34,28.97-33.25,49.06-71.19l0.89,0.47           c-20.15,38.05-34.91,54.99-49.19,71.38c-14.24,16.34-28.97,33.24-49.06,71.19c-20.09,37.94-25.8,59.62-31.31,80.59           c-5.53,21.02-11.25,42.76-31.4,80.81c-20.15,38.05-34.91,54.99-49.2,71.38c-14.24,16.34-28.97,33.24-49.06,71.19           c-20.09,37.95-25.8,59.63-31.31,80.59c-5.53,21.02-11.25,42.76-31.4,80.81c-20.15,38.05-34.92,54.99-49.2,71.38           C626.93,1033.08,612.2,1049.98,592.1,1087.93z"/><path fill="#757d02" d="M661.86,1124.87l-0.89-0.47c20.15-38.05,34.92-54.99,49.2-71.38c14.24-16.35,28.97-33.25,49.07-71.19           c20.1-37.95,25.8-59.63,31.31-80.59c5.53-21.02,11.25-42.76,31.4-80.81c20.15-38.05,34.91-54.99,49.2-71.38           c14.24-16.34,28.97-33.24,49.07-71.19c20.09-37.94,25.8-59.62,31.31-80.59c5.53-21.02,11.25-42.76,31.4-80.81           c20.15-38.05,34.91-54.99,49.19-71.38c14.24-16.34,28.97-33.24,49.06-71.19l0.89,0.47           c-20.15,38.05-34.91,54.99-49.19,71.38c-14.24,16.34-28.97,33.24-49.06,71.19c-20.09,37.94-25.8,59.62-31.31,80.59           c-5.53,21.02-11.25,42.76-31.4,80.8c-20.15,38.05-34.91,54.99-49.19,71.38c-14.24,16.34-28.97,33.24-49.06,71.19           c-20.1,37.95-25.8,59.63-31.31,80.59c-5.53,21.02-11.25,42.76-31.4,80.81c-20.15,38.05-34.92,54.99-49.2,71.38           C696.68,1070.02,681.96,1086.92,661.86,1124.87z"/><g><path fill="#757d02" d="M1159.05,717.47c-38.05-20.15-54.99-34.91-71.38-49.19c-16.34-14.24-33.24-28.97-71.19-49.06           c-37.94-20.09-59.62-25.8-80.59-31.31c-21.02-5.53-42.76-11.25-80.8-31.4c-38.05-20.15-54.99-34.91-71.38-49.2           c-16.34-14.24-33.25-28.97-71.19-49.06c-37.95-20.1-59.63-25.8-80.59-31.31c-21.02-5.53-42.76-11.25-80.81-31.4           c-38.05-20.15-54.99-34.92-71.38-49.2c-16.34-14.24-33.25-28.97-71.19-49.07l0.47-0.89c38.05,20.15,54.99,34.92,71.38,49.2           c16.34,14.24,33.25,28.97,71.19,49.07c37.95,20.1,59.63,25.8,80.59,31.31c21.02,5.53,42.76,11.25,80.81,31.4           c38.05,20.15,54.99,34.91,71.38,49.2c16.34,14.24,33.25,28.97,71.19,49.07c37.94,20.09,59.62,25.8,80.59,31.31           c21.02,5.53,42.76,11.25,80.81,31.4c38.05,20.15,54.99,34.91,71.38,49.19c16.34,14.24,33.24,28.97,71.19,49.06           L1159.05,717.47z"/><path fill="#757d02" d="M1122.11,787.22c-38.05-20.15-54.99-34.91-71.38-49.19c-16.34-14.24-33.25-28.97-71.19-49.07           c-37.94-20.09-59.62-25.8-80.59-31.31c-21.02-5.53-42.76-11.25-80.81-31.4c-38.05-20.15-54.99-34.92-71.38-49.2           c-16.34-14.24-33.25-28.97-71.19-49.06c-37.95-20.09-59.63-25.8-80.59-31.31c-21.02-5.53-42.76-11.25-80.81-31.4           c-38.05-20.15-54.99-34.92-71.38-49.2c-16.34-14.24-33.25-28.97-71.19-49.07l0.47-0.89c38.05,20.15,54.99,34.92,71.38,49.2           c16.34,14.24,33.25,28.97,71.19,49.07c37.95,20.1,59.63,25.8,80.59,31.31c21.02,5.53,42.76,11.25,80.81,31.4           c38.05,20.15,54.99,34.91,71.38,49.19c16.34,14.24,33.24,28.97,71.19,49.06c37.94,20.09,59.62,25.8,80.59,31.31           c21.02,5.53,42.76,11.25,80.8,31.4c38.05,20.15,54.99,34.91,71.38,49.2c16.34,14.24,33.24,28.97,71.19,49.06           L1122.11,787.22z"/><path fill="#757d02" d="M1048.22,926.74c-38.05-20.15-54.99-34.91-71.38-49.19c-16.34-14.24-33.24-28.97-71.19-49.06           c-37.94-20.09-59.62-25.8-80.59-31.31c-21.02-5.53-42.76-11.25-80.81-31.4c-38.05-20.15-54.99-34.91-71.38-49.19           c-16.34-14.24-33.25-28.97-71.19-49.07c-37.95-20.09-59.63-25.8-80.59-31.31c-21.02-5.53-42.76-11.25-80.81-31.4           c-38.05-20.15-54.99-34.92-71.38-49.2c-16.35-14.24-33.25-28.97-71.19-49.07l0.47-0.89c38.05,20.15,54.99,34.92,71.38,49.2           c16.34,14.24,33.25,28.97,71.19,49.07c37.95,20.09,59.63,25.8,80.59,31.31c21.02,5.53,42.76,11.25,80.81,31.4           c38.05,20.15,54.99,34.91,71.38,49.2c16.34,14.24,33.25,28.97,71.19,49.06c37.94,20.09,59.62,25.8,80.59,31.31           c21.02,5.53,42.76,11.25,80.8,31.4c38.05,20.15,54.99,34.91,71.38,49.19c16.34,14.24,33.24,28.97,71.19,49.06           L1048.22,926.74z"/><path fill="#757d02" d="M1085.16,856.98c-38.05-20.15-54.99-34.91-71.38-49.19c-16.34-14.24-33.25-28.97-71.19-49.07           c-37.94-20.09-59.62-25.8-80.59-31.31c-21.02-5.53-42.76-11.25-80.81-31.4c-38.05-20.15-54.99-34.92-71.38-49.2           c-16.34-14.24-33.25-28.97-71.19-49.06c-37.94-20.1-59.63-25.8-80.59-31.31c-21.02-5.53-42.76-11.25-80.81-31.4           c-38.05-20.15-54.99-34.92-71.38-49.2c-16.34-14.24-33.25-28.97-71.19-49.07l0.47-0.89c38.05,20.15,54.99,34.92,71.38,49.2           c16.34,14.24,33.25,28.97,71.19,49.07c37.95,20.1,59.63,25.8,80.59,31.31c21.02,5.53,42.76,11.25,80.81,31.4           c38.05,20.15,54.99,34.91,71.38,49.2c16.34,14.24,33.24,28.97,71.19,49.06c37.95,20.09,59.63,25.8,80.59,31.31           c21.02,5.53,42.76,11.25,80.8,31.4c38.05,20.15,54.99,34.91,71.38,49.2c16.34,14.24,33.24,28.97,71.19,49.06           L1085.16,856.98z"/><path fill="#757d02" d="M1011.28,996.5c-38.05-20.15-54.99-34.91-71.38-49.19c-16.34-14.24-33.25-28.97-71.19-49.06           c-37.94-20.09-59.62-25.8-80.59-31.31c-21.02-5.53-42.76-11.25-80.8-31.4c-38.05-20.15-54.99-34.91-71.38-49.2           c-16.34-14.24-33.24-28.97-71.19-49.06c-37.95-20.09-59.63-25.8-80.59-31.31c-21.02-5.53-42.76-11.25-80.81-31.4           c-38.05-20.15-54.99-34.92-71.38-49.2c-16.35-14.24-33.25-28.97-71.19-49.07l0.47-0.89c38.05,20.15,54.99,34.92,71.38,49.2           c16.35,14.24,33.25,28.97,71.19,49.07c37.95,20.09,59.63,25.8,80.59,31.31c21.02,5.53,42.76,11.25,80.81,31.4           c38.05,20.15,54.99,34.91,71.38,49.19c16.34,14.24,33.25,28.97,71.19,49.07c37.94,20.09,59.62,25.8,80.59,31.31           c21.02,5.53,42.76,11.25,80.81,31.4c38.05,20.15,54.99,34.91,71.38,49.19c16.34,14.24,33.24,28.97,71.19,49.06           L1011.28,996.5z"/><path fill="#757d02" d="M974.34,1066.25c-38.05-20.15-54.99-34.91-71.38-49.19c-16.34-14.24-33.24-28.97-71.19-49.06           c-37.94-20.09-59.62-25.8-80.59-31.31c-21.02-5.53-42.76-11.25-80.81-31.4c-38.05-20.15-54.99-34.91-71.38-49.19           c-16.34-14.24-33.25-28.97-71.19-49.07c-37.95-20.09-59.63-25.8-80.59-31.31c-21.02-5.53-42.76-11.25-80.81-31.4           c-38.05-20.15-55-34.92-71.38-49.2c-16.34-14.24-33.25-28.97-71.19-49.07l0.47-0.89c38.05,20.15,54.99,34.92,71.38,49.2           c16.34,14.24,33.25,28.97,71.19,49.07c37.95,20.1,59.63,25.8,80.59,31.31c21.02,5.53,42.76,11.25,80.81,31.4           c38.05,20.15,54.99,34.91,71.38,49.2c16.34,14.24,33.25,28.97,71.19,49.06c37.94,20.09,59.62,25.8,80.59,31.31           c21.02,5.53,42.76,11.25,80.8,31.4c38.05,20.15,54.99,34.91,71.38,49.19c16.34,14.24,33.24,28.97,71.19,49.06           L974.34,1066.25z"/></g></g><g><path fill="#1e1814" d="M861.33,668.81c-13.78,2.46-23.09,2.09-23.09,2.09l-30.11-106.81L861.33,668.81z"/></g><g><path fill="#1e1814" d="M688.58,605.73c0,0-52.51,164.11-137.11,164.11l-42.86-43.81l44.29,66.75        C552.91,792.78,643.59,809.4,688.58,605.73z"/></g><g><path fill="#1e1814" d="M688.58,606.23c-0.09,0-0.17-0.02-0.25-0.07l-114.88-66.74c-0.24-0.14-0.32-0.45-0.18-0.69        c0.14-0.24,0.45-0.32,0.69-0.18l114.88,66.74c0.24,0.14,0.32,0.45,0.18,0.69C688.92,606.14,688.75,606.23,688.58,606.23z"/></g><g><path fill="#f2b3c1" d="M758.66,535.4l-109.69,20.8c-3.94-18.65-33.69-65.24-33.69-65.24c16.27-2.86,25.16-17.01,30.02-31.27        c5.52-16.21,5.82-32.54,5.82-32.54l39.07,22.94c-0.71,9.86,2.45,16.92,7.61,21.95c15.47,15.13,48.84,12.1,48.84,12.1        L758.66,535.4z"/><path fill="#f2b3c1" d="M697.81,472.04c-2.36,0.93-4.88,1.63-7.55,2.1c-19.19,3.39-34.94-2.03-44.95-14.45        c5.52-16.21,5.82-32.54,5.82-32.54l39.07,22.94C689.48,459.95,692.65,467.01,697.81,472.04z"/><path fill="#f2b3c1" d="M738.38,418.87c-1.91,6.09-4.25,11.96-7.13,17.3c-7.49,13.91-18.59,24.24-34.96,25.64        c-47.49,4.05-69.77-42.54-35.84-110.41l86.03-3.34C746.47,348.05,748.5,386.62,738.38,418.87z"/><circle cx="643" cy="390.83" r="24.61" fill="#f2b3c1" transform="rotate(-7.054 643.219 390.942)"/><path fill="#1e1814" d="M720.67,427.65c-0.1,0-0.19-0.03-0.28-0.08l-12.9-8.6c-0.23-0.15-0.29-0.47-0.14-0.7        c0.15-0.23,0.46-0.29,0.7-0.14l12.01,8.01c-0.61-6.03-3.14-34.66,3.48-41.28c7.43-7.43,15.32-0.08,15.4-0.01        c0.2,0.19,0.21,0.51,0.02,0.71c-0.19,0.2-0.51,0.21-0.71,0.02c-0.29-0.28-7.26-6.74-14-0.01c-6.92,6.92-3.12,41.18-3.08,41.53        c0.02,0.19-0.07,0.38-0.24,0.49C720.85,427.63,720.76,427.65,720.67,427.65z"/><path fill="#1e1814" d="M729.14,399.22c-0.31,2.83-1.88,4.98-3.51,4.8c-1.63-0.18-2.71-2.62-2.4-5.45         c0.31-2.83,1.88-4.98,3.51-4.8C728.38,393.95,729.45,396.39,729.14,399.22z"/><path fill="#1e1814" d="M728.74,396.53c-1.31,0-2.33-0.43-2.39-0.45c-0.25-0.11-0.37-0.4-0.26-0.66         c0.11-0.26,0.4-0.37,0.66-0.26c0.02,0.01,2.1,0.87,3.95-0.08c1.33-0.69,2.25-2.15,2.73-4.35c0.06-0.27,0.33-0.45,0.6-0.38         c0.27,0.06,0.44,0.33,0.38,0.6c-0.55,2.51-1.64,4.2-3.26,5.03C730.32,396.39,729.48,396.53,728.74,396.53z"/><path fill="#1e1814" d="M701.29,395.57c-0.38,2.82-2.01,4.93-3.64,4.71c-1.63-0.22-2.64-2.69-2.25-5.51         c0.38-2.82,2.01-4.93,3.64-4.71C700.66,390.28,701.67,392.75,701.29,395.57z"/><path fill="#1e1814" d="M701.12,392.87c-1.39,0-2.47-0.49-2.54-0.52c-0.25-0.12-0.36-0.41-0.24-0.67         c0.12-0.25,0.42-0.36,0.67-0.25c0.02,0.01,2.08,0.93,3.95,0.03c1.35-0.65,2.3-2.09,2.84-4.27c0.07-0.27,0.34-0.43,0.61-0.37         c0.27,0.07,0.43,0.34,0.37,0.61c-0.62,2.49-1.76,4.16-3.39,4.94C702.6,392.75,701.82,392.87,701.12,392.87z"/><path fill="#1e1814" d="M707.76,379.86c-0.27,0-0.49-0.21-0.5-0.48c-0.02-0.36-0.54-8.71-9.01-10.28        c-8.49-1.58-11.67,3.6-11.8,3.82c-0.14,0.24-0.45,0.32-0.69,0.18c-0.24-0.14-0.32-0.45-0.18-0.69        c0.03-0.06,3.63-6.02,12.85-4.3c9.26,1.73,9.83,11.13,9.83,11.22c0.01,0.28-0.2,0.51-0.48,0.53        C707.78,379.86,707.77,379.86,707.76,379.86z"/><path fill="#1e1814" d="M680.46,433.73c-0.37,0-0.74-0.04-1.11-0.12c-1.22-0.27-2.18-0.99-2.85-2.15        c-2.76-4.77,4.04-14.02,4.33-14.41c0.17-0.22,0.48-0.27,0.7-0.1c0.22,0.17,0.27,0.48,0.1,0.7c-0.07,0.09-6.7,9.11-4.27,13.31        c0.53,0.92,1.25,1.47,2.19,1.67c2.67,0.59,6.13-1.81,6.16-1.83c0.23-0.16,0.54-0.1,0.7,0.12c0.16,0.23,0.11,0.54-0.12,0.7        C686.17,431.72,683.27,433.73,680.46,433.73z"/><path fill="#1e1814" d="M635.11,405.09c-0.26,0-0.47-0.19-0.5-0.45c-0.04-0.42-0.93-10.39,4.57-11.7c1-0.24,1.97-0.06,2.9,0.52        c2.05,1.28,3.51,4.36,4.4,6.85c-0.33-8.42-1.78-22.13-6.16-22.6c-6.19-0.65-8.28,7.43-8.3,7.51        c-0.07,0.27-0.34,0.43-0.61,0.37c-0.27-0.07-0.43-0.34-0.37-0.61c0.02-0.09,2.34-9.01,9.38-8.26        c6.94,0.74,7.14,24.61,7.14,27.33c0,0.26-0.19,0.47-0.45,0.5c-0.25,0.03-0.49-0.14-0.55-0.39c-0.02-0.08-1.77-7.8-5.03-9.84        c-0.7-0.44-1.4-0.57-2.13-0.39c-4.66,1.11-3.81,10.53-3.8,10.63c0.03,0.28-0.18,0.52-0.45,0.55        C635.15,405.09,635.13,405.09,635.11,405.09z"/><path fill="#e391a7" d="M682.58,408.3c0,5.19-4.21,9.4-9.4,9.4c-5.19,0-9.4-4.21-9.4-9.4c0-5.19,4.21-9.4,9.4-9.4        C678.37,398.89,682.58,403.11,682.58,408.3z"/><path fill="#e391a7" d="M738.38,418.87c-1.91,6.09-4.25,11.96-7.13,17.3c-3.9-1.15-6.74-4.76-6.74-9.02c0-5.19,4.2-9.4,9.4-9.4        C735.52,417.75,737.05,418.16,738.38,418.87z"/><path fill="#e35757" d="M772.29,369.8c-9.32-14.69-11.63-59.51-43.09-73.49c-31.47-13.98-59.24-3.23-65.43,5.38        c0,0-28.05-7.17-48.48,19c-20.44,26.17-40.31,111.35,34.82,118.07c-3.34-6.59-5.36-14.43-5.86-23.35        c-0.41,0.02-0.82,0.03-1.24,0.03c-13.59,0-24.61-11.02-24.61-24.61c0-10.86,7.04-20.07,16.8-23.34c0,0,3.64,29.41,41.16,23.39        c37.52-6.02,54.28-51.88,70.27-30.74c-0.2,13.95-1.63,37.69-8.24,58.74c-1.28,4.08-2.76,8.06-4.46,11.85        c0,0.01-0.01,0.02-0.01,0.03c0,0,19.38,23.61,41.61,2.48C797.74,412.1,781.61,384.49,772.29,369.8z"/><path fill="#1e1814" d="M747.33,336.53c-2.97-5.18-9.35-6.91-14.96-6.88c-6.44,0.03-12.64,2.41-18.07,5.74         c-11.47,7.04-19.22,18.21-28.98,27.22c-5.14,4.74-10.89,8.74-17.5,11.13c-6.62,2.4-13.8,3.29-20.81,2.47         c-6.58-0.77-13.4-3.29-17.51-8.74c-4.17-5.52-5.28-12.99-4.64-19.73c1.46-15.28,13.04-28.05,28.21-30.67         c0.64-0.11,0.37-1.08-0.27-0.97c-12.84,2.22-23.52,11.69-27.43,24.09c-2.04,6.47-2.33,13.65-0.43,20.19         c1.82,6.29,5.9,11.32,11.86,14.09c6.07,2.82,13.09,3.46,19.69,2.83c6.89-0.66,13.62-2.82,19.57-6.37         c11.87-7.09,19.67-18.81,29.8-27.92c5.74-5.16,12.48-9.71,20.07-11.55c6.79-1.65,16.59-1.26,20.52,5.57         C746.79,337.6,747.66,337.09,747.33,336.53L747.33,336.53z"/><path fill="#1e1814" d="M747.53,358.71c-0.11,7.78,1.71,15.53,5.25,22.46c3.74,7.34,9.42,12.91,15.59,18.24         c6.11,5.27,12.48,10.73,15.75,18.31c1.64,3.8,2.4,8.2,1.36,12.27c-0.98,3.85-3.76,6.72-7.5,8         c-8.69,2.98-16.76-2.71-22.15-9.07c-0.42-0.49-1.13,0.22-0.71,0.71c4.8,5.66,11.54,10.83,19.38,10.11         c3.25-0.3,6.47-1.54,8.81-3.86c2.75-2.73,3.76-6.66,3.63-10.44c-0.28-8.13-5.39-15.17-11.02-20.63         c-6.41-6.22-13.9-11.34-19.05-18.77c-5.53-7.99-8.46-17.63-8.33-27.34C748.55,358.06,747.54,358.06,747.53,358.71         L747.53,358.71z"/><path fill="#1e1814" d="M747.98,391.75c2.45,9.65,6.75,18.76,12.64,26.79c0.38,0.52,1.25,0.02,0.87-0.51         c-5.84-7.97-10.1-16.97-12.53-26.55C748.79,390.85,747.82,391.12,747.98,391.75L747.98,391.75z"/><path fill="#1e1814" d="M613.52,352.16c-4.8,10.92-8.46,22.63-8.4,34.67c0.05,10.04,2.96,20.13,9.09,28.17         c3.28,4.3,7.43,7.87,12.29,10.26c0.58,0.28,1.09-0.58,0.51-0.87c-8.62-4.24-14.76-12.18-18.02-21.1         c-3.74-10.23-3.47-21.36-1.04-31.86c1.5-6.45,3.77-12.7,6.43-18.76C614.64,352.08,613.78,351.56,613.52,352.16L613.52,352.16         z"/><path fill="#1e1814" d="M671.99,309.59c14.99-12.41,36.26-15.14,53.85-6.79c4.8,2.28,9.21,5.29,13.08,8.93         c0.47,0.44,1.18-0.27,0.71-0.71c-14.43-13.58-35.81-17.78-54.26-10.48c-5.11,2.02-9.86,4.84-14.09,8.34         C670.78,309.29,671.49,310,671.99,309.59L671.99,309.59z"/><ellipse cx="647.06" cy="260.84" fill="#e35757" rx="35.19" ry="36.56"/><g><path fill="#1e1814" d="M653.65,230.74c17.73,0.17,34.55,14.55,34.43,32.93c-0.05,8.27-4.17,16.4-11.19,20.91         c-6.67,4.29-15.41,4.35-22.11,0.05c-3.63-2.33-6.22-5.84-7.48-9.96c-1.19-3.9-1.86-9.33,2.6-11.34         c3.32-1.49,7.3-0.49,9.62,2.26c2.71,3.22,3.16,7.92,2.38,11.91c-1.56,7.94-7.64,14.65-15.12,17.56         c-8.35,3.25-18.07,1.72-25.51-3.08c-7.26-4.68-12.28-12.37-14.47-20.64c-1.87-7.09-1.7-15.81,3.15-21.75         c1.16-1.41,2.55-2.57,4.14-3.46c0.56-0.32,0.06-1.19-0.51-0.87c-7.16,4.03-9.43,12.86-8.78,20.56         c0.75,8.94,5.14,17.81,11.79,23.83c7.04,6.37,17,9.5,26.37,7.58c8.45-1.73,15.87-7.87,18.91-15.98         c2.55-6.81,1.69-18.26-7.33-19.51c-3.23-0.45-6.95,0.76-8.44,3.86c-1.01,2.11-0.79,4.58-0.39,6.81         c0.44,2.44,1.29,4.83,2.56,6.97c4.23,7.1,13.07,10.49,21.07,9.2c8.5-1.37,15.34-8.15,18.2-16.07         c3.27-9.04,1.09-19.36-4.25-27.14c-5.29-7.71-13.72-13.12-22.87-14.94c-2.23-0.45-4.5-0.67-6.77-0.69         C653,229.73,653,230.73,653.65,230.74L653.65,230.74z"/></g><g><path fill="#fff" d="M636.27,409.72c0,0-4.24-15.32,2.47-17.88c6.71-2.56,1.76,17.15,1.76,17.15s7.42-13.18,14.39-8.32        c6.97,4.85-11.74,10.73-11.74,10.73s14.47,8.2,7.59,14.22c-6.88,6.02-11.12-9.69-11.12-9.69s1.06,19.73-6.71,17.19        c-7.76-2.54,2.29-16.31,2.29-16.31s-13.24,3.82-13.06-5.41C622.33,402.17,636.27,409.72,636.27,409.72z"/></g></g><g><polygon fill="#3969e4" points="1099.18 602.08 1232.55 715.73 1047.1 822.17 966.34 676.64"/><polygon fill="#fff" points="986.81 682.45 1097.4 620.38 1206.46 713.32 1052.87 801.47"/></g><g><path fill="#f2b3c1" d="M677.44,648.94l-4.27-3.67c-14.52,32.95-38.85,78.51-70.97,104.43l-0.01,0.01c0,0,5.33,5.98,14.2,15.07         c27.04,27.7,86.94,84.16,128.59,87.37l9.77-136.79L677.44,648.94z"/><path fill="#f2b3c1" d="M1002.4,711.88l-29.79-75.99l-217.86,79.46l-9.77,136.79c1.03,0.08,2.04,0.14,3.05,0.15         C803.11,853.01,1002.4,711.88,1002.4,711.88z"/><circle cx="748.31" cy="783.57" r="68.84" fill="#f2b3c1"/><path fill="#f2b3c1" d="M673.17,645.26c-14.52,32.95-38.85,78.51-70.97,104.43l-0.01,0.01c0,0,5.33,5.98,14.2,15.07        c20.76-20.54,43.08-55.73,61.06-115.84L673.17,645.26z"/><path fill="#f2b3c1" d="M972.61,635.89c0,0,25.27-8.23,60.16,2.76c34.89,10.99,44.45,23.42,44.45,23.42l-33.46,69.3l-41.36-19.49        L972.61,635.89z"/><circle cx="982.6" cy="675.87" r="41.08" fill="#f2b3c1"/><path fill="#f2b3c1" d="M1078.66,662.42l72.51,44.38c4.62,2.89,3.72,10.14-1.5,12.12l0,0c-6.56,2.49-13.72,2.17-19.84-0.89        l-73.4-35.42L1078.66,662.42z"/><path fill="#f2b3c1" d="M1112.88,718.04c-1.94,8.29-11.45,12.21-18.68,7.7l-47.11-29.4c-4.62-2.89-3.72-10.14,1.5-12.12l0,0        c6.56-2.49,13.72-2.17,19.84,0.89l37.91,18.97C1111.49,706.66,1114.2,712.43,1112.88,718.04L1112.88,718.04z"/><path fill="#f2b3c1" d="M1098.01,731.88c-1.94,8.29-11.46,12.21-18.68,7.7l-47.11-29.4c-4.62-2.89-3.72-10.14,1.5-12.12l0,0        c6.56-2.49,13.72-2.17,19.84,0.89l37.91,18.97C1096.62,720.5,1099.32,726.27,1098.01,731.88L1098.01,731.88z"/><path fill="#f2b3c1" d="M1078.44,746.41c-2.44,9.28-12.42,14.14-19.6,9.54l-46.78-30.03c-1.32-0.85-2.14-2.1-2.53-3.54        c-0.57-2.11-0.18-4.6,1.05-6.64c0.84-1.41,2.08-2.6,3.68-3.33c3.46-1.57,7.05-2.35,10.53-2.35c3.43,0,6.76,0.76,9.8,2.28        l37.9,18.97C1077.63,733.89,1080.09,740.13,1078.44,746.41z"/><path fill="#f2b3c1" d="M1103.24,657.03c-1.13,2.49-2.49,4.7-4.06,6.59c-0.82,1.01-1.72,1.92-2.65,2.74        c-1.59,1.38-3.32,2.49-5.16,3.3c-1.29,0.56-2.63,0.99-4.02,1.24l-51.34,9.43l-12.54-33.44l72.99-4.17        C1101.91,642.4,1105.98,650.97,1103.24,657.03z"/><path fill="#f2b3c1" d="M1099.18,663.62c-0.82,1.01-1.72,1.92-2.65,2.74c-1.59,1.38-3.32,2.49-5.16,3.3l-0.08,0.02l-34.86-20.03        L1099.18,663.62z"/><path fill="#f2b3c1" d="M1053.32,743.55l-43.8-21.17c-0.57-2.11-0.18-4.6,1.05-6.64l0.01-0.01L1053.32,743.55z"/><rect width="1.01" height="56.05" x="1055.43" y="696.14" fill="#1e1814" transform="rotate(-56.618 1056.018 724.189)"/><rect width="1.01" height="60.04" x="1072.22" y="681.97" fill="#1e1814" transform="rotate(-58.586 1072.801 712.013)"/><rect width="1.01" height="57.05" x="1086.16" y="666.01" fill="#1e1814" transform="rotate(-60.12 1086.672 694.514)"/><path fill="#fff" d="M957.25,645.22c0,6.46-5.24,11.69-11.69,11.69c-6.46,0-11.69-5.24-11.69-11.69        c0-6.46,5.24-11.69,11.69-11.69C952.02,633.53,957.25,638.76,957.25,645.22z"/><g><circle cx="948.43" cy="674.11" r="11.69" fill="#fff" transform="rotate(-45.001 948.425 674.125)"/></g><g><circle cx="954.64" cy="705.02" r="11.69" fill="#fff" transform="rotate(-76.714 954.732 705.041)"/></g><g><circle cx="966.34" cy="733.88" r="11.69" fill="#fff" transform="rotate(-7.022 966.17 733.839)"/></g></g><g><path fill="#f2b3c1" d="M1186.11,771.61l14.09-83.83c0.86-5.38-5.21-9.46-10.13-6.82l0,0c-6.18,3.32-10.64,8.93-12.34,15.56        l-21.44,78.63L1186.11,771.61z"/><path fill="#f2b3c1" d="M1159.24,785.04l7.59-84.67c0.44-5.43-5.92-9.03-10.63-6.02l0,0c-5.91,3.79-9.92,9.73-11.11,16.46        l-15.31,80.05L1159.24,785.04z"/><path fill="#f2b3c1" d="M1130.56,810.73l7.59-84.67c0.44-5.43-5.92-9.03-10.63-6.02l0,0c-5.91,3.79-9.92,9.73-11.11,16.46        l-15.31,80.05L1130.56,810.73z"/><path fill="#f2b3c1" d="M1106.15,817.12l4.91-66.11c0.27-4.24-5.64-7.21-9.87-4.97l0,0c-5.32,2.82-8.84,7.38-9.77,12.62        l-12.08,62.3L1106.15,817.12z"/></g></g><g><rect width="450.05" height="33.81" x="894.61" y="146" fill="#6b98df"/><path fill="#1e1814" d="M1129.78,674.61c-0.03,0-0.06,0-0.09-0.01c-0.24-0.05-0.41-0.25-0.41-0.49V519.79H894.61      c-0.28,0-0.5-0.23-0.5-0.5V146c0-0.28,0.22-0.5,0.5-0.5h450.05c0.28,0,0.5,0.22,0.5,0.5v373.29c0,0.28-0.22,0.5-0.5,0.5h-153.32      l-61.09,154.5C1130.17,674.49,1129.98,674.61,1129.78,674.61z M895.11,518.79h234.67c0.28,0,0.5,0.22,0.5,0.5v152.18      l60.25-152.37c0.08-0.19,0.26-0.32,0.47-0.32h153.16V146.51H895.11V518.79z"/><path fill="#fff" d="M1274.7,162.91c0,3.62-2.93,6.55-6.55,6.55c-3.62,0-6.55-2.93-6.55-6.55c0-3.62,2.93-6.55,6.55-6.55      C1271.77,156.36,1274.7,159.29,1274.7,162.91z"/><path fill="#ffae01" d="M1299.69,162.91c0,3.62-2.93,6.55-6.55,6.55s-6.55-2.93-6.55-6.55c0-3.62,2.93-6.55,6.55-6.55      S1299.69,159.29,1299.69,162.91z"/><path fill="#1e1814" d="M1326.2,162.91c0,3.62-2.93,6.55-6.55,6.55c-3.62,0-6.55-2.93-6.55-6.55c0-3.62,2.93-6.55,6.55-6.55      C1323.27,156.36,1326.2,159.29,1326.2,162.91z"/></g><g><path fill="#1a2e35" d="M1019.11,461.94c0,2.73-1.98,4.39-5.25,4.39h-3.45v4.05h-1.36v-12.84h4.81     C1017.13,457.54,1019.11,459.19,1019.11,461.94z M1017.75,461.94c0-2.05-1.36-3.23-3.93-3.23h-3.41v6.42h3.41     C1016.4,465.14,1017.75,463.96,1017.75,461.94z"/><path fill="#1a2e35" d="M1030.65,460.74v9.65h-1.25v-1.76c-0.68,1.17-1.93,1.85-3.47,1.85c-2.46,0-4.07-1.38-4.07-4.15v-5.6h1.3     v5.47c0,2.05,1.06,3.1,2.9,3.1c2.02,0,3.28-1.3,3.28-3.51v-5.06H1030.65z"/><path fill="#1a2e35" d="M1039.17,460.66v1.26c-0.11,0-0.22-0.02-0.31-0.02c-2.02,0-3.25,1.28-3.25,3.56v4.92h-1.3v-9.65h1.25v1.89     C1036.16,461.34,1037.39,460.66,1039.17,460.66z"/><path fill="#1a2e35" d="M1040.46,465.56c0-2.88,2.09-4.9,4.97-4.9c1.63,0,3.01,0.64,3.78,1.91l-0.97,0.66     c-0.66-0.97-1.69-1.43-2.81-1.43c-2.11,0-3.65,1.51-3.65,3.76c0,2.27,1.54,3.76,3.65,3.76c1.12,0,2.15-0.44,2.81-1.41l0.97,0.66     c-0.77,1.25-2.15,1.91-3.78,1.91C1042.55,470.48,1040.46,468.44,1040.46,465.56z"/><path fill="#1a2e35" d="M1060.49,464.79v5.6h-1.3v-5.47c0-2.04-1.06-3.08-2.9-3.08c-2.07,0-3.38,1.28-3.38,3.49v5.06h-1.3v-13.61     h1.3v5.65c0.72-1.12,1.98-1.76,3.61-1.76C1058.88,460.66,1060.49,462.02,1060.49,464.79z"/><path fill="#1a2e35" d="M1071.32,464.4v5.98h-1.25v-1.5c-0.59,0.99-1.72,1.6-3.32,1.6c-2.18,0-3.52-1.14-3.52-2.81     c0-1.49,0.95-2.73,3.72-2.73h3.06v-0.59c0-1.65-0.94-2.55-2.73-2.55c-1.25,0-2.42,0.44-3.21,1.14l-0.59-0.97     c0.97-0.83,2.4-1.3,3.93-1.3C1069.91,460.66,1071.32,461.91,1071.32,464.4z M1070.02,467.49v-1.58h-3.03     c-1.87,0-2.48,0.73-2.48,1.72c0,1.12,0.9,1.82,2.44,1.82C1068.42,469.45,1069.5,468.75,1070.02,467.49z"/><path fill="#1a2e35" d="M1073.52,469.28l0.59-1.03c0.77,0.61,2.07,1.08,3.43,1.08c1.83,0,2.59-0.62,2.59-1.58     c0-2.51-6.26-0.53-6.26-4.35c0-1.58,1.36-2.75,3.82-2.75c1.25,0,2.6,0.35,3.41,0.9l-0.57,1.05c-0.84-0.59-1.85-0.83-2.84-0.83     c-1.74,0-2.51,0.68-2.51,1.59c0,2.61,6.26,0.64,6.26,4.35c0,1.67-1.47,2.75-3.98,2.75     C1075.86,470.48,1074.31,469.96,1073.52,469.28z"/><path fill="#1a2e35" d="M1092.24,465.96h-8.07c0.15,2.02,1.69,3.36,3.8,3.36c1.17,0,2.22-0.42,2.95-1.26l0.73,0.84     c-0.86,1.03-2.2,1.58-3.72,1.58c-3.01,0-5.06-2.06-5.06-4.92c0-2.86,2-4.9,4.71-4.9s4.68,2,4.68,4.9     C1092.26,465.67,1092.24,465.82,1092.24,465.96z M1084.17,464.99h6.84c-0.17-1.89-1.54-3.21-3.43-3.21     C1085.71,461.78,1084.33,463.1,1084.17,464.99z"/><path fill="#1a2e35" d="M1113.89,460.74l-3.65,9.65h-1.23l-3.05-7.91l-3.04,7.91h-1.23l-3.63-9.65h1.25l3.03,8.2l3.1-8.2h1.12     l3.08,8.2l3.06-8.2H1113.89z"/><path fill="#1a2e35" d="M1122.85,464.4v5.98h-1.25v-1.5c-0.59,0.99-1.72,1.6-3.32,1.6c-2.18,0-3.52-1.14-3.52-2.81     c0-1.49,0.96-2.73,3.72-2.73h3.06v-0.59c0-1.65-0.93-2.55-2.73-2.55c-1.25,0-2.42,0.44-3.21,1.14l-0.59-0.97     c0.97-0.83,2.4-1.3,3.93-1.3C1121.44,460.66,1122.85,461.91,1122.85,464.4z M1121.55,467.49v-1.58h-3.03     c-1.87,0-2.48,0.73-2.48,1.72c0,1.12,0.9,1.82,2.44,1.82C1119.95,469.45,1121.04,468.75,1121.55,467.49z"/><path fill="#1a2e35" d="M1125.05,469.28l0.59-1.03c0.77,0.61,2.07,1.08,3.43,1.08c1.83,0,2.59-0.62,2.59-1.58     c0-2.51-6.26-0.53-6.26-4.35c0-1.58,1.36-2.75,3.82-2.75c1.25,0,2.6,0.35,3.41,0.9l-0.57,1.05c-0.84-0.59-1.85-0.83-2.84-0.83     c-1.74,0-2.51,0.68-2.51,1.59c0,2.61,6.26,0.64,6.26,4.35c0,1.67-1.47,2.75-3.98,2.75     C1127.38,470.48,1125.84,469.96,1125.05,469.28z"/><path fill="#1a2e35" d="M1138.84,469.28l0.59-1.03c0.77,0.61,2.07,1.08,3.43,1.08c1.83,0,2.59-0.62,2.59-1.58     c0-2.51-6.26-0.53-6.26-4.35c0-1.58,1.36-2.75,3.82-2.75c1.25,0,2.6,0.35,3.41,0.9l-0.57,1.05c-0.84-0.59-1.85-0.83-2.84-0.83     c-1.74,0-2.51,0.68-2.51,1.59c0,2.61,6.26,0.64,6.26,4.35c0,1.67-1.47,2.75-3.98,2.75     C1141.17,470.48,1139.63,469.96,1138.84,469.28z"/><path fill="#1a2e35" d="M1157.85,460.74v9.65h-1.25v-1.76c-0.68,1.17-1.93,1.85-3.47,1.85c-2.46,0-4.07-1.38-4.07-4.15v-5.6h1.3     v5.47c0,2.05,1.06,3.1,2.9,3.1c2.02,0,3.29-1.3,3.29-3.51v-5.06H1157.85z"/><path fill="#1a2e35" d="M1160.53,465.56c0-2.88,2.09-4.9,4.97-4.9c1.63,0,3.01,0.64,3.78,1.91l-0.97,0.66     c-0.66-0.97-1.69-1.43-2.81-1.43c-2.11,0-3.65,1.51-3.65,3.76c0,2.27,1.54,3.76,3.65,3.76c1.12,0,2.15-0.44,2.81-1.41l0.97,0.66     c-0.77,1.25-2.15,1.91-3.78,1.91C1162.62,470.48,1160.53,468.44,1160.53,465.56z"/><path fill="#1a2e35" d="M1170.69,465.56c0-2.88,2.09-4.9,4.97-4.9c1.63,0,3.01,0.64,3.78,1.91l-0.97,0.66     c-0.66-0.97-1.69-1.43-2.81-1.43c-2.11,0-3.65,1.51-3.65,3.76c0,2.27,1.54,3.76,3.65,3.76c1.12,0,2.15-0.44,2.81-1.41l0.97,0.66     c-0.77,1.25-2.15,1.91-3.78,1.91C1172.79,470.48,1170.69,468.44,1170.69,465.56z"/><path fill="#1a2e35" d="M1190.24,465.96h-8.07c0.15,2.02,1.69,3.36,3.8,3.36c1.17,0,2.22-0.42,2.95-1.26l0.73,0.84     c-0.86,1.03-2.2,1.58-3.73,1.58c-3.01,0-5.06-2.06-5.06-4.92c0-2.86,2-4.9,4.72-4.9c2.71,0,4.68,2,4.68,4.9     C1190.26,465.67,1190.24,465.82,1190.24,465.96z M1182.16,464.99h6.84c-0.17-1.89-1.54-3.21-3.43-3.21     C1183.71,461.78,1182.33,463.1,1182.16,464.99z"/><path fill="#1a2e35" d="M1191.58,469.28l0.59-1.03c0.77,0.61,2.07,1.08,3.43,1.08c1.83,0,2.59-0.62,2.59-1.58     c0-2.51-6.26-0.53-6.26-4.35c0-1.58,1.36-2.75,3.82-2.75c1.25,0,2.6,0.35,3.41,0.9l-0.57,1.05c-0.84-0.59-1.85-0.83-2.84-0.83     c-1.74,0-2.51,0.68-2.51,1.59c0,2.61,6.26,0.64,6.26,4.35c0,1.67-1.47,2.75-3.98,2.75     C1193.91,470.48,1192.37,469.96,1191.58,469.28z"/><path fill="#1a2e35" d="M1200.55,469.28l0.59-1.03c0.77,0.61,2.07,1.08,3.43,1.08c1.83,0,2.59-0.62,2.59-1.58     c0-2.51-6.26-0.53-6.26-4.35c0-1.58,1.36-2.75,3.82-2.75c1.25,0,2.6,0.35,3.41,0.9l-0.57,1.05c-0.84-0.59-1.85-0.83-2.84-0.83     c-1.74,0-2.51,0.68-2.51,1.59c0,2.61,6.26,0.64,6.26,4.35c0,1.67-1.47,2.75-3.98,2.75     C1202.88,470.48,1201.34,469.96,1200.55,469.28z"/><path fill="#1a2e35" d="M1212.35,459.6v1.14h2.97v1.1h-2.93v8.55h-1.3v-8.55h-1.73v-1.1h1.73v-1.19c0-1.72,1.03-2.86,2.92-2.86     c0.72,0,1.45,0.2,1.93,0.61l-0.44,0.97c-0.37-0.31-0.88-0.48-1.43-0.48C1212.94,457.78,1212.35,458.4,1212.35,459.6z"/><path fill="#1a2e35" d="M1225.78,460.74v9.65h-1.25v-1.76c-0.68,1.17-1.93,1.85-3.47,1.85c-2.46,0-4.07-1.38-4.07-4.15v-5.6h1.3     v5.47c0,2.05,1.06,3.1,2.9,3.1c2.02,0,3.29-1.3,3.29-3.51v-5.06H1225.78z"/><path fill="#1a2e35" d="M1229.44,456.77h1.3v13.61h-1.3V456.77z"/></g><g><path fill="#e55757" d="M1026.97,409.5h-8.15v-3.86h20.87v3.86h-8.15v20.73h-4.57V409.5z"/><path fill="#e55757" d="M1061.19,419.48v10.75h-4.39v-10.19c0-3.34-1.65-4.95-4.46-4.95c-3.13,0-5.23,1.9-5.23,5.66v9.49h-4.39     v-26.07h4.39v9.49c1.44-1.55,3.65-2.39,6.25-2.39C1057.85,411.26,1061.19,413.82,1061.19,419.48z"/><path fill="#e55757" d="M1082.47,419.23v11h-4.15v-2.28c-1.05,1.62-3.09,2.53-5.9,2.53c-4.29,0-6.99-2.35-6.99-5.62     c0-3.13,2.11-5.59,7.8-5.59h4.85v-0.28c0-2.57-1.55-4.07-4.67-4.07c-2.11,0-4.29,0.7-5.69,1.86l-1.72-3.2     c2-1.55,4.92-2.32,7.94-2.32C1079.35,411.26,1082.47,413.82,1082.47,419.23z M1078.08,424.36v-2.18h-4.53     c-2.99,0-3.79,1.13-3.79,2.5c0,1.58,1.34,2.6,3.58,2.6C1075.48,427.28,1077.34,426.3,1078.08,424.36z"/><path fill="#e55757" d="M1106.57,419.48v10.75h-4.39v-10.19c0-3.34-1.65-4.95-4.46-4.95c-3.13,0-5.24,1.9-5.24,5.66v9.49h-4.39     v-18.76h4.18v2.42c1.44-1.72,3.72-2.64,6.46-2.64C1103.23,411.26,1106.57,413.82,1106.57,419.48z"/><path fill="#e55757" d="M1119.81,422.19l-3.27,3.09v4.95h-4.39v-26.07h4.39v15.74l9.1-8.43h5.27l-7.84,7.87l8.57,10.89h-5.34     L1119.81,422.19z"/><path fill="#e55757" d="M1161.75,411.47l-8.78,20.27c-1.72,4.25-4.11,5.55-7.24,5.55c-1.86,0-3.83-0.63-5.03-1.72l1.76-3.23     c0.84,0.81,2.04,1.3,3.23,1.3c1.55,0,2.46-0.74,3.3-2.6l0.32-0.74l-8.19-18.83h4.57l5.9,13.88l5.94-13.88H1161.75z"/><path fill="#e55757" d="M1162.41,420.85c0-5.62,4.22-9.59,9.98-9.59c5.83,0,10.01,3.97,10.01,9.59c0,5.62-4.18,9.63-10.01,9.63     C1166.63,430.48,1162.41,426.47,1162.41,420.85z M1177.98,420.85c0-3.58-2.39-5.87-5.59-5.87c-3.16,0-5.55,2.28-5.55,5.87     c0,3.58,2.39,5.87,5.55,5.87C1175.59,426.72,1177.98,424.43,1177.98,420.85z"/><path fill="#e55757" d="M1204.78,411.47v18.76h-4.18v-2.39c-1.41,1.72-3.62,2.64-6.04,2.64c-4.81,0-8.08-2.64-8.08-8.29v-10.72     h4.39v10.12c0,3.41,1.62,5.02,4.39,5.02c3.06,0,5.13-1.9,5.13-5.66v-9.49H1204.78z"/><path fill="#e55757" d="M1209.73,427.74c0-1.51,1.2-2.71,2.85-2.71c1.62,0,2.77,1.19,2.77,2.71c0,1.51-1.16,2.74-2.77,2.74     C1210.93,430.48,1209.73,429.25,1209.73,427.74z M1209.98,405.64h5.2l-0.88,16.44h-3.48L1209.98,405.64z"/></g><g><circle cx="1120.63" cy="318.29" r="50.53" fill="#e55757"/><path fill="#fff" d="M1145.52,296.97c0.65,0.52-8.79,13.22-21.08,28.35c-2.62,3.18-5.13,6.23-7.44,9.03l-1.02,1.23l-1.09-1.13        c-9.59-9.89-16.15-17.23-15.68-17.69c0.46-0.46,7.81,6.09,17.69,15.68l-2.11,0.11c2.27-2.84,4.74-5.92,7.31-9.14        C1134.39,308.29,1144.87,296.45,1145.52,296.97z"/><path fill="#ff4f5b" d="M1192.41,297.94c-1.5-5.31-8.4-4.79-8.4-4.79l0.19,3.69c3.99-0.69,6.47,3.99,6.47,3.99L1192.41,297.94z"/><path fill="#e1e1e1" d="M1046.05,309.07c-1.5-5.31-8.4-4.79-8.4-4.79l0.19,3.69c3.99-0.69,6.47,3.99,6.47,3.99L1046.05,309.07z"/><path fill="#e1e1e1" d="M1126.67,235.64c8,2.42,12.98-6.8,12.98-6.8l-4.87-2.77c-2.38,5.65-10.37,5-10.37,5L1126.67,235.64z"/><path fill="#ff4f5b" d="M1082.26,245.58c-3.72,0.4-4.17,5.07-4.17,5.07l2.49,0.3c0-2.75,3.41-3.87,3.41-3.87L1082.26,245.58z"/><path fill="#e1e1e1" d="M1235.77,279.77c0.54-3.71-3.88-5.3-3.88-5.3l-0.9,2.34c2.66,0.68,2.9,4.26,2.9,4.26L1235.77,279.77z"/><path fill="#ff4f5b" d="M1103.99,196.8c0.54-3.71-3.88-5.3-3.88-5.3l-0.91,2.34c2.66,0.68,2.9,4.26,2.9,4.26L1103.99,196.8z"/><path fill="#ff4f5b" d="M1011.97,256.57c-0.67,5.81,7.03,7.22,7.03,7.22l1.39-3.8c-4.62-0.42-5.28-5.86-5.28-5.86L1011.97,256.57z"/><path fill="#ff4f5b" d="M1183.28,235.52c3.74,0.21,4.94-4.33,4.94-4.33l-2.41-0.7c-0.44,2.71-3.99,3.27-3.99,3.27L1183.28,235.52z"/><path fill="#e1e1e1" d="M1203.7,250.76c0,0.17-1.38,0.3-3.09,0.3c-1.71,0-3.09-0.14-3.09-0.3c0-0.17,1.38-0.3,3.09-0.3         C1202.32,250.46,1203.7,250.6,1203.7,250.76z"/><path fill="#e1e1e1" d="M1206.98,242.37c0.17,0,0.3,1.4,0.3,3.13c0,1.73-0.14,3.13-0.3,3.13c-0.17,0-0.3-1.4-0.3-3.13         C1206.68,243.77,1206.82,242.37,1206.98,242.37z"/><path fill="#e1e1e1" d="M1210.48,250.56c0-0.17,1.38-0.3,3.09-0.3c1.71,0,3.09,0.14,3.09,0.3c0,0.17-1.38,0.3-3.09,0.3         C1211.86,250.86,1210.48,250.73,1210.48,250.56z"/><path fill="#e1e1e1" d="M1207.2,258.96c-0.17,0-0.3-1.4-0.3-3.13c0-1.73,0.14-3.13,0.3-3.13c0.17,0,0.3,1.4,0.3,3.13         C1207.5,257.56,1207.36,258.96,1207.2,258.96z"/><path fill="#e1e1e1" d="M1212.19,255.36c-0.13,0.11-0.72-0.4-1.33-1.12c-0.61-0.73-0.99-1.4-0.87-1.51        c0.13-0.11,0.72,0.4,1.33,1.12C1211.93,254.58,1212.31,255.25,1212.19,255.36z"/><path fill="#e1e1e1" d="M1211.9,245.83c0.12,0.12-0.3,0.73-0.93,1.36c-0.63,0.63-1.24,1.05-1.35,0.94        c-0.12-0.12,0.3-0.73,0.93-1.36C1211.17,246.14,1211.78,245.72,1211.9,245.83z"/><g><path fill="#e1e1e1" d="M1204.82,248.26c-0.11,0.13-0.68-0.17-1.28-0.67c-0.6-0.5-1-1.01-0.89-1.13        c0.11-0.13,0.68,0.17,1.28,0.67C1204.53,247.62,1204.93,248.13,1204.82,248.26z"/></g><g><path fill="#e1e1e1" d="M1204.54,252.46c0.12,0.11-0.24,0.71-0.81,1.34c-0.57,0.63-1.13,1.04-1.26,0.93        c-0.12-0.11,0.24-0.71,0.81-1.34C1203.86,252.76,1204.42,252.35,1204.54,252.46z"/></g><g><path fill="#ff4f5b" d="M1035.57,233.56c0,0.17-1.38,0.3-3.09,0.3c-1.71,0-3.09-0.14-3.09-0.3c0-0.17,1.38-0.3,3.09-0.3         C1034.19,233.26,1035.57,233.39,1035.57,233.56z"/><path fill="#ff4f5b" d="M1038.85,225.16c0.17,0,0.3,1.4,0.3,3.13c0,1.73-0.13,3.13-0.3,3.13c-0.17,0-0.3-1.4-0.3-3.13         C1038.55,226.56,1038.68,225.16,1038.85,225.16z"/><path fill="#ff4f5b" d="M1042.34,233.36c0-0.17,1.38-0.3,3.09-0.3c1.71,0,3.09,0.14,3.09,0.3c0,0.17-1.38,0.3-3.09,0.3         C1043.72,233.66,1042.34,233.52,1042.34,233.36z"/><path fill="#ff4f5b" d="M1039.06,241.76c-0.17,0-0.3-1.4-0.3-3.13c0-1.73,0.14-3.13,0.3-3.13c0.17,0,0.3,1.4,0.3,3.13         C1039.36,240.35,1039.23,241.76,1039.06,241.76z"/><path fill="#ff4f5b" d="M1044.05,238.15c-0.13,0.11-0.72-0.4-1.33-1.12c-0.61-0.73-0.99-1.4-0.87-1.51        c0.13-0.11,0.72,0.4,1.33,1.12C1043.79,237.37,1044.18,238.05,1044.05,238.15z"/><path fill="#ff4f5b" d="M1043.76,228.63c0.12,0.12-0.3,0.73-0.93,1.36c-0.63,0.63-1.24,1.05-1.35,0.94        c-0.12-0.12,0.3-0.73,0.93-1.36C1043.04,228.93,1043.64,228.51,1043.76,228.63z"/><g><path fill="#ff4f5b" d="M1036.69,231.06c-0.11,0.13-0.68-0.17-1.28-0.67c-0.6-0.5-1-1.01-0.89-1.13        c0.11-0.13,0.68,0.17,1.28,0.67C1036.39,230.42,1036.79,230.93,1036.69,231.06z"/></g><g><path fill="#ff4f5b" d="M1036.41,235.25c0.12,0.11-0.24,0.71-0.81,1.34c-0.57,0.63-1.13,1.04-1.26,0.93        c-0.12-0.11,0.24-0.71,0.81-1.34C1035.72,235.56,1036.28,235.14,1036.41,235.25z"/></g></g></g><g><path fill="#1e1814" d="M688.83,605.3c0.24,0.14,0.32,0.45,0.18,0.69c-0.09,0.16-0.26,0.25-0.44,0.25c-0.09,0-0.17-0.02-0.25-0.07"/></g></svg>